0
SECTION
2
ENTITIES
0
POLYLINE
8
cut
66
1
70
1
0
VERTEX
8
cut
10
195.0000
20
0.3900
30
0.0
0
VERTEX
8
cut
10
194.9413
20
0.4027
30
0.0
0
VERTEX
8
cut
10
194.7653
20
0.4408
30
0.0
0
VERTEX
8
cut
10
194.4722
20
0.5042
30
0.0
0
VERTEX
8
cut
10
194.0622
20
0.5925
30
0.0
0
VERTEX
8
cut
10
193.5359
20
0.7054
30
0.0
0
VERTEX
8
cut
10
192.8939
20
0.8426
30
0.0
0
VERTEX
8
cut
10
192.1369
20
1.0034
30
0.0
0
VERTEX
8
cut
10
191.2656
20
1.1873
30
0.0
0
VERTEX
8
cut
10
190.2812
20
1.3935
30
0.0
0
VERTEX
8
cut
10
189.1846
20
1.6213
30
0.0
0
VERTEX
8
cut
10
187.9773
20
1.8698
30
0.0
0
VERTEX
8
cut
10
186.6604
20
2.1380
30
0.0
0
VERTEX
8
cut
10
185.2355
20
2.4250
30
0.0
0
VERTEX
8
cut
10
183.7043
20
2.7298
30
0.0
0
VERTEX
8
cut
10
182.0684
20
3.0511
30
0.0
0
VERTEX
8
cut
10
180.3298
20
3.3878
30
0.0
0
VERTEX
8
cut
10
178.4904
20
3.7388
30
0.0
0
VERTEX
8
cut
10
176.5524
20
4.1028
30
0.0
0
VERTEX
8
cut
10
174.5180
20
4.4406
30
0.0
0
VERTEX
8
cut
10
172.3896
20
4.7929
30
0.0
0
VERTEX
8
cut
10
170.1696
20
5.1583
30
0.0
0
VERTEX
8
cut
10
167.8607
20
5.5349
30
0.0
0
VERTEX
8
cut
10
165.4654
20
5.9210
30
0.0
0
VERTEX
8
cut
10
162.9867
20
6.3148
30
0.0
0
VERTEX
8
cut
10
160.4275
20
6.7145
30
0.0
0
VERTEX
8
cut
10
157.7907
20
7.1183
30
0.0
0
VERTEX
8
cut
10
155.0796
20
7.5246
30
0.0
0
VERTEX
8
cut
10
152.2972
20
7.9317
30
0.0
0
VERTEX
8
cut
10
149.4470
20
8.3380
30
0.0
0
VERTEX
8
cut
10
146.5323
20
8.7420
30
0.0
0
VERTEX
8
cut
10
143.5566
20
9.1422
30
0.0
0
VERTEX
8
cut
10
140.5235
20
9.5371
30
0.0
0
VERTEX
8
cut
10
137.4366
20
9.9254
30
0.0
0
VERTEX
8
cut
10
134.2997
20
10.3057
30
0.0
0
VERTEX
8
cut
10
131.1165
20
10.6767
30
0.0
0
VERTEX
8
cut
10
127.8909
20
11.0371
30
0.0
0
VERTEX
8
cut
10
124.6269
20
11.3856
30
0.0
0
VERTEX
8
cut
10
121.3283
20
11.7211
30
0.0
0
VERTEX
8
cut
10
117.9993
20
12.0423
30
0.0
0
VERTEX
8
cut
10
114.6438
20
12.3479
30
0.0
0
VERTEX
8
cut
10
111.2661
20
12.6367
30
0.0
0
VERTEX
8
cut
10
107.8703
20
12.9076
30
0.0
0
VERTEX
8
cut
10
104.4605
20
13.1593
30
0.0
0
VERTEX
8
cut
10
101.0411
20
13.3906
30
0.0
0
VERTEX
8
cut
10
97.6161
20
13.6003
30
0.0
0
VERTEX
8
cut
10
94.1899
20
13.7873
30
0.0
0
VERTEX
8
cut
10
90.7668
20
13.9504
30
0.0
0
VERTEX
8
cut
10
87.3510
20
14.0887
30
0.0
0
VERTEX
8
cut
10
83.9468
20
14.2013
30
0.0
0
VERTEX
8
cut
10
80.5488
20
14.2875
30
0.0
0
VERTEX
8
cut
10
77.1557
20
14.3469
30
0.0
0
VERTEX
8
cut
10
73.7867
20
14.3789
30
0.0
0
VERTEX
8
cut
10
70.4462
20
14.3834
30
0.0
0
VERTEX
8
cut
10
67.1386
20
14.3608
30
0.0
0
VERTEX
8
cut
10
63.8681
20
14.3117
30
0.0
0
VERTEX
8
cut
10
60.6391
20
14.2374
30
0.0
0
VERTEX
8
cut
10
57.4559
20
14.1397
30
0.0
0
VERTEX
8
cut
10
54.3225
20
14.0206
30
0.0
0
VERTEX
8
cut
10
51.2432
20
13.8830
30
0.0
0
VERTEX
8
cut
10
48.2220
20
13.7301
30
0.0
0
VERTEX
8
cut
10
45.2629
20
13.5653
30
0.0
0
VERTEX
8
cut
10
42.3696
20
13.3927
30
0.0
0
VERTEX
8
cut
10
39.5462
20
13.2164
30
0.0
0
VERTEX
8
cut
10
36.7961
20
13.0407
30
0.0
0
VERTEX
8
cut
10
34.1231
20
12.6828
30
0.0
0
VERTEX
8
cut
10
31.5305
20
12.3003
30
0.0
0
VERTEX
8
cut
10
29.0218
20
11.8945
30
0.0
0
VERTEX
8
cut
10
26.6000
20
11.4671
30
0.0
0
VERTEX
8
cut
10
24.2684
20
11.0196
30
0.0
0
VERTEX
8
cut
10
22.0298
20
10.5538
30
0.0
0
VERTEX
8
cut
10
19.8871
20
10.0715
30
0.0
0
VERTEX
8
cut
10
17.8428
20
9.5743
30
0.0
0
VERTEX
8
cut
10
15.8996
20
9.0641
30
0.0
0
VERTEX
8
cut
10
14.0597
20
8.5428
30
0.0
0
VERTEX
8
cut
10
12.3254
20
8.0121
30
0.0
0
VERTEX
8
cut
10
10.6987
20
7.4738
30
0.0
0
VERTEX
8
cut
10
9.1816
20
6.9297
30
0.0
0
VERTEX
8
cut
10
7.7756
20
6.3816
30
0.0
0
VERTEX
8
cut
10
6.4825
20
5.8310
30
0.0
0
VERTEX
8
cut
10
5.3036
20
5.2797
30
0.0
0
VERTEX
8
cut
10
4.2402
20
4.7291
30
0.0
0
VERTEX
8
cut
10
3.2934
20
4.1805
30
0.0
0
VERTEX
8
cut
10
2.4642
20
3.6354
30
0.0
0
VERTEX
8
cut
10
1.7534
20
3.0950
30
0.0
0
VERTEX
8
cut
10
1.1616
20
2.5603
30
0.0
0
VERTEX
8
cut
10
0.6893
20
2.0322
30
0.0
0
VERTEX
8
cut
10
0.3368
20
1.5115
30
0.0
0
VERTEX
8
cut
10
0.1045
20
0.9990
30
0.0
0
VERTEX
8
cut
10
-0.0078
20
0.4950
30
0.0
0
VERTEX
8
cut
10
0.0000
20
0.0000
30
0.0
0
VERTEX
8
cut
10
0.1266
20
-0.4786
30
0.0
0
VERTEX
8
cut
10
0.3705
20
-0.9335
30
0.0
0
VERTEX
8
cut
10
0.7314
20
-1.3645
30
0.0
0
VERTEX
8
cut
10
1.2085
20
-1.7716
30
0.0
0
VERTEX
8
cut
10
1.8009
20
-2.1549
30
0.0
0
VERTEX
8
cut
10
2.5078
20
-2.5142
30
0.0
0
VERTEX
8
cut
10
3.3281
20
-2.8497
30
0.0
0
VERTEX
8
cut
10
4.2605
20
-3.1615
30
0.0
0
VERTEX
8
cut
10
5.3038
20
-3.4496
30
0.0
0
VERTEX
8
cut
10
6.4563
20
-3.7141
30
0.0
0
VERTEX
8
cut
10
7.7167
20
-3.9554
30
0.0
0
VERTEX
8
cut
10
9.0830
20
-4.1735
30
0.0
0
VERTEX
8
cut
10
10.5536
20
-4.3689
30
0.0
0
VERTEX
8
cut
10
12.1265
20
-4.5417
30
0.0
0
VERTEX
8
cut
10
13.7996
20
-4.6924
30
0.0
0
VERTEX
8
cut
10
15.5709
20
-4.8215
30
0.0
0
VERTEX
8
cut
10
17.4381
20
-4.9294
30
0.0
0
VERTEX
8
cut
10
19.3989
20
-5.0166
30
0.0
0
VERTEX
8
cut
10
21.4509
20
-5.0839
30
0.0
0
VERTEX
8
cut
10
23.5915
20
-5.1318
30
0.0
0
VERTEX
8
cut
10
25.8184
20
-5.1612
30
0.0
0
VERTEX
8
cut
10
28.1287
20
-5.1728
30
0.0
0
VERTEX
8
cut
10
30.5199
20
-5.1675
30
0.0
0
VERTEX
8
cut
10
32.9890
20
-5.1462
30
0.0
0
VERTEX
8
cut
10
35.5333
20
-5.1099
30
0.0
0
VERTEX
8
cut
10
38.1499
20
-5.0597
30
0.0
0
VERTEX
8
cut
10
40.8357
20
-4.9967
30
0.0
0
VERTEX
8
cut
10
43.5877
20
-4.9220
30
0.0
0
VERTEX
8
cut
10
46.4029
20
-4.8368
30
0.0
0
VERTEX
8
cut
10
49.2780
20
-4.7423
30
0.0
0
VERTEX
8
cut
10
52.2098
20
-4.6397
30
0.0
0
VERTEX
8
cut
10
55.1951
20
-4.5304
30
0.0
0
VERTEX
8
cut
10
58.2305
20
-4.4157
30
0.0
0
VERTEX
8
cut
10
61.3126
20
-4.2967
30
0.0
0
VERTEX
8
cut
10
64.4380
20
-4.1749
30
0.0
0
VERTEX
8
cut
10
67.6031
20
-4.0514
30
0.0
0
VERTEX
8
cut
10
70.8045
20
-3.9276
30
0.0
0
VERTEX
8
cut
10
74.0385
20
-3.8047
30
0.0
0
VERTEX
8
cut
10
77.3015
20
-3.6838
30
0.0
0
VERTEX
8
cut
10
80.5898
20
-3.5662
30
0.0
0
VERTEX
8
cut
10
83.9144
20
-3.4513
30
0.0
0
VERTEX
8
cut
10
87.2659
20
-3.3336
30
0.0
0
VERTEX
8
cut
10
90.6307
20
-3.2131
30
0.0
0
VERTEX
8
cut
10
94.0047
20
-3.0907
30
0.0
0
VERTEX
8
cut
10
97.3839
20
-2.9672
30
0.0
0
VERTEX
8
cut
10
100.7643
20
-2.8434
30
0.0
0
VERTEX
8
cut
10
104.1420
20
-2.7198
30
0.0
0
VERTEX
8
cut
10
107.5128
20
-2.5972
30
0.0
0
VERTEX
8
cut
10
110.8726
20
-2.4761
30
0.0
0
VERTEX
8
cut
10
114.2176
20
-2.3570
30
0.0
0
VERTEX
8
cut
10
117.5435
20
-2.2405
30
0.0
0
VERTEX
8
cut
10
120.8465
20
-2.1269
30
0.0
0
VERTEX
8
cut
10
124.1224
20
-2.0166
30
0.0
0
VERTEX
8
cut
10
127.3674
20
-1.9098
30
0.0
0
VERTEX
8
cut
10
130.5774
20
-1.8070
30
0.0
0
VERTEX
8
cut
10
133.7486
20
-1.7081
30
0.0
0
VERTEX
8
cut
10
136.8770
20
-1.6135
30
0.0
0
VERTEX
8
cut
10
139.9589
20
-1.5231
30
0.0
0
VERTEX
8
cut
10
142.9904
20
-1.4371
30
0.0
0
VERTEX
8
cut
10
145.9677
20
-1.3555
30
0.0
0
VERTEX
8
cut
10
148.8873
20
-1.2781
30
0.0
0
VERTEX
8
cut
10
151.7454
20
-1.2051
30
0.0
0
VERTEX
8
cut
10
154.5386
20
-1.1362
30
0.0
0
VERTEX
8
cut
10
157.2633
20
-1.0714
30
0.0
0
VERTEX
8
cut
10
159.9161
20
-1.0106
30
0.0
0
VERTEX
8
cut
10
162.4937
20
-0.9537
30
0.0
0
VERTEX
8
cut
10
164.9929
20
-0.9004
30
0.0
0
VERTEX
8
cut
10
167.4106
20
-0.8507
30
0.0
0
VERTEX
8
cut
10
169.7436
20
-0.8043
30
0.0
0
VERTEX
8
cut
10
171.9890
20
-0.7612
30
0.0
0
VERTEX
8
cut
10
174.1441
20
-0.7211
30
0.0
0
VERTEX
8
cut
10
176.2059
20
-0.6840
30
0.0
0
VERTEX
8
cut
10
178.1719
20
-0.6496
30
0.0
0
VERTEX
8
cut
10
180.0396
20
-0.6178
30
0.0
0
VERTEX
8
cut
10
181.8065
20
-0.5885
30
0.0
0
VERTEX
8
cut
10
183.4705
20
-0.5615
30
0.0
0
VERTEX
8
cut
10
185.0293
20
-0.5368
30
0.0
0
VERTEX
8
cut
10
186.4810
20
-0.5143
30
0.0
0
VERTEX
8
cut
10
187.8236
20
-0.4939
30
0.0
0
VERTEX
8
cut
10
189.0554
20
-0.4754
30
0.0
0
VERTEX
8
cut
10
190.1748
20
-0.4589
30
0.0
0
VERTEX
8
cut
10
191.1804
20
-0.4442
30
0.0
0
VERTEX
8
cut
10
192.0708
20
-0.4314
30
0.0
0
VERTEX
8
cut
10
192.8449
20
-0.4203
30
0.0
0
VERTEX
8
cut
10
193.5016
20
-0.4110
30
0.0
0
VERTEX
8
cut
10
194.0401
20
-0.4034
30
0.0
0
VERTEX
8
cut
10
194.4596
20
-0.3975
30
0.0
0
VERTEX
8
cut
10
194.7597
20
-0.3933
30
0.0
0
VERTEX
8
cut
10
194.9399
20
-0.3908
30
0.0
0
VERTEX
8
cut
10
195.0000
20
-0.3900
30
0.0
0
SEQEND
0
ENDSEC
0
EOF
