0
SECTION
2
ENTITIES
0
POLYLINE
8
cut
66
1
70
1
0
VERTEX
8
cut
10
92.0000
20
0.1840
30
0.0
0
VERTEX
8
cut
10
91.9723
20
0.1900
30
0.0
0
VERTEX
8
cut
10
91.8893
20
0.2080
30
0.0
0
VERTEX
8
cut
10
91.7510
20
0.2379
30
0.0
0
VERTEX
8
cut
10
91.5576
20
0.2795
30
0.0
0
VERTEX
8
cut
10
91.3093
20
0.3328
30
0.0
0
VERTEX
8
cut
10
91.0064
20
0.3975
30
0.0
0
VERTEX
8
cut
10
90.6492
20
0.4734
30
0.0
0
VERTEX
8
cut
10
90.2381
20
0.5602
30
0.0
0
VERTEX
8
cut
10
89.7737
20
0.6575
30
0.0
0
VERTEX
8
cut
10
89.2563
20
0.7649
30
0.0
0
VERTEX
8
cut
10
88.6867
20
0.8822
30
0.0
0
VERTEX
8
cut
10
88.0654
20
1.0087
30
0.0
0
VERTEX
8
cut
10
87.3932
20
1.1441
30
0.0
0
VERTEX
8
cut
10
86.6707
20
1.2879
30
0.0
0
VERTEX
8
cut
10
85.8989
20
1.4395
30
0.0
0
VERTEX
8
cut
10
85.0787
20
1.5984
30
0.0
0
VERTEX
8
cut
10
84.2109
20
1.7640
30
0.0
0
VERTEX
8
cut
10
83.2965
20
1.9357
30
0.0
0
VERTEX
8
cut
10
82.3367
20
2.0950
30
0.0
0
VERTEX
8
cut
10
81.3325
20
2.2613
30
0.0
0
VERTEX
8
cut
10
80.2852
20
2.4337
30
0.0
0
VERTEX
8
cut
10
79.1958
20
2.6113
30
0.0
0
VERTEX
8
cut
10
78.0657
20
2.7935
30
0.0
0
VERTEX
8
cut
10
76.8963
20
2.9793
30
0.0
0
VERTEX
8
cut
10
75.6889
20
3.1679
30
0.0
0
VERTEX
8
cut
10
74.4449
20
3.3584
30
0.0
0
VERTEX
8
cut
10
73.1657
20
3.5501
30
0.0
0
VERTEX
8
cut
10
71.8530
20
3.7421
30
0.0
0
VERTEX
8
cut
10
70.5083
20
3.9338
30
0.0
0
VERTEX
8
cut
10
69.1332
20
4.1244
30
0.0
0
VERTEX
8
cut
10
67.7293
20
4.3132
30
0.0
0
VERTEX
8
cut
10
66.2983
20
4.4995
30
0.0
0
VERTEX
8
cut
10
64.8419
20
4.6827
30
0.0
0
VERTEX
8
cut
10
63.3619
20
4.8622
30
0.0
0
VERTEX
8
cut
10
61.8601
20
5.0372
30
0.0
0
VERTEX
8
cut
10
60.3383
20
5.2072
30
0.0
0
VERTEX
8
cut
10
58.7983
20
5.3717
30
0.0
0
VERTEX
8
cut
10
57.2421
20
5.5300
30
0.0
0
VERTEX
8
cut
10
55.6715
20
5.6815
30
0.0
0
VERTEX
8
cut
10
54.0884
20
5.8257
30
0.0
0
VERTEX
8
cut
10
52.4948
20
5.9620
30
0.0
0
VERTEX
8
cut
10
50.8927
20
6.0897
30
0.0
0
VERTEX
8
cut
10
49.2839
20
6.2085
30
0.0
0
VERTEX
8
cut
10
47.6707
20
6.3176
30
0.0
0
VERTEX
8
cut
10
46.0548
20
6.4165
30
0.0
0
VERTEX
8
cut
10
44.4383
20
6.5048
30
0.0
0
VERTEX
8
cut
10
42.8233
20
6.5817
30
0.0
0
VERTEX
8
cut
10
41.2118
20
6.6470
30
0.0
0
VERTEX
8
cut
10
39.6057
20
6.7001
30
0.0
0
VERTEX
8
cut
10
38.0025
20
6.7408
30
0.0
0
VERTEX
8
cut
10
36.4017
20
6.7688
30
0.0
0
VERTEX
8
cut
10
34.8122
20
6.7839
30
0.0
0
VERTEX
8
cut
10
33.2362
20
6.7860
30
0.0
0
VERTEX
8
cut
10
31.6756
20
6.7753
30
0.0
0
VERTEX
8
cut
10
30.1326
20
6.7522
30
0.0
0
VERTEX
8
cut
10
28.6092
20
6.7172
30
0.0
0
VERTEX
8
cut
10
27.1074
20
6.6710
30
0.0
0
VERTEX
8
cut
10
25.6291
20
6.6149
30
0.0
0
VERTEX
8
cut
10
24.1763
20
6.5499
30
0.0
0
VERTEX
8
cut
10
22.7509
20
6.4778
30
0.0
0
VERTEX
8
cut
10
21.3548
20
6.4000
30
0.0
0
VERTEX
8
cut
10
19.9898
20
6.3186
30
0.0
0
VERTEX
8
cut
10
18.6577
20
6.2354
30
0.0
0
VERTEX
8
cut
10
17.3602
20
6.1525
30
0.0
0
VERTEX
8
cut
10
16.0991
20
5.9837
30
0.0
0
VERTEX
8
cut
10
14.8759
20
5.8032
30
0.0
0
VERTEX
8
cut
10
13.6923
20
5.6118
30
0.0
0
VERTEX
8
cut
10
12.5498
20
5.4101
30
0.0
0
VERTEX
8
cut
10
11.4497
20
5.1990
30
0.0
0
VERTEX
8
cut
10
10.3935
20
4.9792
30
0.0
0
VERTEX
8
cut
10
9.3826
20
4.7517
30
0.0
0
VERTEX
8
cut
10
8.4181
20
4.5171
30
0.0
0
VERTEX
8
cut
10
7.5013
20
4.2764
30
0.0
0
VERTEX
8
cut
10
6.6333
20
4.0304
30
0.0
0
VERTEX
8
cut
10
5.8151
20
3.7800
30
0.0
0
VERTEX
8
cut
10
5.0476
20
3.5261
30
0.0
0
VERTEX
8
cut
10
4.3318
20
3.2694
30
0.0
0
VERTEX
8
cut
10
3.6685
20
3.0108
30
0.0
0
VERTEX
8
cut
10
3.0584
20
2.7511
30
0.0
0
VERTEX
8
cut
10
2.5022
20
2.4909
30
0.0
0
VERTEX
8
cut
10
2.0005
20
2.2311
30
0.0
0
VERTEX
8
cut
10
1.5538
20
1.9724
30
0.0
0
VERTEX
8
cut
10
1.1626
20
1.7152
30
0.0
0
VERTEX
8
cut
10
0.8272
20
1.4602
30
0.0
0
VERTEX
8
cut
10
0.5480
20
1.2079
30
0.0
0
VERTEX
8
cut
10
0.3252
20
0.9588
30
0.0
0
VERTEX
8
cut
10
0.1589
20
0.7131
30
0.0
0
VERTEX
8
cut
10
0.0493
20
0.4713
30
0.0
0
VERTEX
8
cut
10
-0.0037
20
0.2335
30
0.0
0
VERTEX
8
cut
10
0.0000
20
0.0000
30
0.0
0
VERTEX
8
cut
10
0.0597
20
-0.2258
30
0.0
0
VERTEX
8
cut
10
0.1748
20
-0.4404
30
0.0
0
VERTEX
8
cut
10
0.3451
20
-0.6438
30
0.0
0
VERTEX
8
cut
10
0.5701
20
-0.8358
30
0.0
0
VERTEX
8
cut
10
0.8497
20
-1.0167
30
0.0
0
VERTEX
8
cut
10
1.1832
20
-1.1862
30
0.0
0
VERTEX
8
cut
10
1.5702
20
-1.3445
30
0.0
0
VERTEX
8
cut
10
2.0101
20
-1.4916
30
0.0
0
VERTEX
8
cut
10
2.5023
20
-1.6275
30
0.0
0
VERTEX
8
cut
10
3.0461
20
-1.7523
30
0.0
0
VERTEX
8
cut
10
3.6407
20
-1.8661
30
0.0
0
VERTEX
8
cut
10
4.2853
20
-1.9690
30
0.0
0
VERTEX
8
cut
10
4.9791
20
-2.0612
30
0.0
0
VERTEX
8
cut
10
5.7212
20
-2.1427
30
0.0
0
VERTEX
8
cut
10
6.5106
20
-2.2139
30
0.0
0
VERTEX
8
cut
10
7.3463
20
-2.2747
30
0.0
0
VERTEX
8
cut
10
8.2272
20
-2.3256
30
0.0
0
VERTEX
8
cut
10
9.1523
20
-2.3668
30
0.0
0
VERTEX
8
cut
10
10.1204
20
-2.3985
30
0.0
0
VERTEX
8
cut
10
11.1304
20
-2.4212
30
0.0
0
VERTEX
8
cut
10
12.1810
20
-2.4350
30
0.0
0
VERTEX
8
cut
10
13.2710
20
-2.4405
30
0.0
0
VERTEX
8
cut
10
14.3991
20
-2.4380
30
0.0
0
VERTEX
8
cut
10
15.5640
20
-2.4279
30
0.0
0
VERTEX
8
cut
10
16.7644
20
-2.4108
30
0.0
0
VERTEX
8
cut
10
17.9989
20
-2.3872
30
0.0
0
VERTEX
8
cut
10
19.2661
20
-2.3574
30
0.0
0
VERTEX
8
cut
10
20.5645
20
-2.3222
30
0.0
0
VERTEX
8
cut
10
21.8926
20
-2.2820
30
0.0
0
VERTEX
8
cut
10
23.2491
20
-2.2374
30
0.0
0
VERTEX
8
cut
10
24.6323
20
-2.1890
30
0.0
0
VERTEX
8
cut
10
26.0408
20
-2.1374
30
0.0
0
VERTEX
8
cut
10
27.4728
20
-2.0833
30
0.0
0
VERTEX
8
cut
10
28.9270
20
-2.0272
30
0.0
0
VERTEX
8
cut
10
30.4015
20
-1.9697
30
0.0
0
VERTEX
8
cut
10
31.8948
20
-1.9114
30
0.0
0
VERTEX
8
cut
10
33.4052
20
-1.8530
30
0.0
0
VERTEX
8
cut
10
34.9310
20
-1.7950
30
0.0
0
VERTEX
8
cut
10
36.4705
20
-1.7380
30
0.0
0
VERTEX
8
cut
10
38.0219
20
-1.6825
30
0.0
0
VERTEX
8
cut
10
39.5904
20
-1.6283
30
0.0
0
VERTEX
8
cut
10
41.1716
20
-1.5728
30
0.0
0
VERTEX
8
cut
10
42.7591
20
-1.5159
30
0.0
0
VERTEX
8
cut
10
44.3509
20
-1.4582
30
0.0
0
VERTEX
8
cut
10
45.9452
20
-1.3999
30
0.0
0
VERTEX
8
cut
10
47.5401
20
-1.3415
30
0.0
0
VERTEX
8
cut
10
49.1337
20
-1.2832
30
0.0
0
VERTEX
8
cut
10
50.7240
20
-1.2253
30
0.0
0
VERTEX
8
cut
10
52.3091
20
-1.1682
30
0.0
0
VERTEX
8
cut
10
53.8873
20
-1.1120
30
0.0
0
VERTEX
8
cut
10
55.4564
20
-1.0570
30
0.0
0
VERTEX
8
cut
10
57.0147
20
-1.0034
30
0.0
0
VERTEX
8
cut
10
58.5603
20
-0.9514
30
0.0
0
VERTEX
8
cut
10
60.0913
20
-0.9011
30
0.0
0
VERTEX
8
cut
10
61.6058
20
-0.8525
30
0.0
0
VERTEX
8
cut
10
63.1019
20
-0.8059
30
0.0
0
VERTEX
8
cut
10
64.5779
20
-0.7612
30
0.0
0
VERTEX
8
cut
10
66.0319
20
-0.7186
30
0.0
0
VERTEX
8
cut
10
67.4621
20
-0.6780
30
0.0
0
VERTEX
8
cut
10
68.8668
20
-0.6395
30
0.0
0
VERTEX
8
cut
10
70.2443
20
-0.6030
30
0.0
0
VERTEX
8
cut
10
71.5927
20
-0.5685
30
0.0
0
VERTEX
8
cut
10
72.9105
20
-0.5360
30
0.0
0
VERTEX
8
cut
10
74.1960
20
-0.5055
30
0.0
0
VERTEX
8
cut
10
75.4476
20
-0.4768
30
0.0
0
VERTEX
8
cut
10
76.6637
20
-0.4499
30
0.0
0
VERTEX
8
cut
10
77.8428
20
-0.4248
30
0.0
0
VERTEX
8
cut
10
78.9835
20
-0.4014
30
0.0
0
VERTEX
8
cut
10
80.0842
20
-0.3795
30
0.0
0
VERTEX
8
cut
10
81.1436
20
-0.3591
30
0.0
0
VERTEX
8
cut
10
82.1603
20
-0.3402
30
0.0
0
VERTEX
8
cut
10
83.1330
20
-0.3227
30
0.0
0
VERTEX
8
cut
10
84.0606
20
-0.3065
30
0.0
0
VERTEX
8
cut
10
84.9418
20
-0.2915
30
0.0
0
VERTEX
8
cut
10
85.7754
20
-0.2776
30
0.0
0
VERTEX
8
cut
10
86.5604
20
-0.2649
30
0.0
0
VERTEX
8
cut
10
87.2959
20
-0.2533
30
0.0
0
VERTEX
8
cut
10
87.9808
20
-0.2426
30
0.0
0
VERTEX
8
cut
10
88.6142
20
-0.2330
30
0.0
0
VERTEX
8
cut
10
89.1954
20
-0.2243
30
0.0
0
VERTEX
8
cut
10
89.7235
20
-0.2165
30
0.0
0
VERTEX
8
cut
10
90.1979
20
-0.2096
30
0.0
0
VERTEX
8
cut
10
90.6180
20
-0.2035
30
0.0
0
VERTEX
8
cut
10
90.9832
20
-0.1983
30
0.0
0
VERTEX
8
cut
10
91.2930
20
-0.1939
30
0.0
0
VERTEX
8
cut
10
91.5471
20
-0.1903
30
0.0
0
VERTEX
8
cut
10
91.7450
20
-0.1876
30
0.0
0
VERTEX
8
cut
10
91.8866
20
-0.1856
30
0.0
0
VERTEX
8
cut
10
91.9716
20
-0.1844
30
0.0
0
VERTEX
8
cut
10
92.0000
20
-0.1840
30
0.0
0
SEQEND
0
ENDSEC
0
EOF
