0
SECTION
2
ENTITIES
0
POLYLINE
8
cut
66
1
70
1
0
VERTEX
8
cut
10
160.0000
20
0.3200
30
0.0
0
VERTEX
8
cut
10
159.9518
20
0.3304
30
0.0
0
VERTEX
8
cut
10
159.8074
20
0.3617
30
0.0
0
VERTEX
8
cut
10
159.5669
20
0.4137
30
0.0
0
VERTEX
8
cut
10
159.2305
20
0.4861
30
0.0
0
VERTEX
8
cut
10
158.7987
20
0.5788
30
0.0
0
VERTEX
8
cut
10
158.2719
20
0.6914
30
0.0
0
VERTEX
8
cut
10
157.6508
20
0.8233
30
0.0
0
VERTEX
8
cut
10
156.9359
20
0.9742
30
0.0
0
VERTEX
8
cut
10
156.1281
20
1.1434
30
0.0
0
VERTEX
8
cut
10
155.2284
20
1.3303
30
0.0
0
VERTEX
8
cut
10
154.2377
20
1.5342
30
0.0
0
VERTEX
8
cut
10
153.1572
20
1.7543
30
0.0
0
VERTEX
8
cut
10
151.9881
20
1.9898
30
0.0
0
VERTEX
8
cut
10
150.7317
20
2.2398
30
0.0
0
VERTEX
8
cut
10
149.3895
20
2.5034
30
0.0
0
VERTEX
8
cut
10
147.9629
20
2.7798
30
0.0
0
VERTEX
8
cut
10
146.4537
20
3.0678
30
0.0
0
VERTEX
8
cut
10
144.8635
20
3.3664
30
0.0
0
VERTEX
8
cut
10
143.1943
20
3.6435
30
0.0
0
VERTEX
8
cut
10
141.4479
20
3.9327
30
0.0
0
VERTEX
8
cut
10
139.6264
20
4.2325
30
0.0
0
VERTEX
8
cut
10
137.7318
20
4.5415
30
0.0
0
VERTEX
8
cut
10
135.7665
20
4.8583
30
0.0
0
VERTEX
8
cut
10
133.7327
20
5.1814
30
0.0
0
VERTEX
8
cut
10
131.6328
20
5.5093
30
0.0
0
VERTEX
8
cut
10
129.4693
20
5.8407
30
0.0
0
VERTEX
8
cut
10
127.2448
20
6.1740
30
0.0
0
VERTEX
8
cut
10
124.9618
20
6.5081
30
0.0
0
VERTEX
8
cut
10
122.6232
20
6.8415
30
0.0
0
VERTEX
8
cut
10
120.2316
20
7.1729
30
0.0
0
VERTEX
8
cut
10
117.7900
20
7.5013
30
0.0
0
VERTEX
8
cut
10
115.3013
20
7.8253
30
0.0
0
VERTEX
8
cut
10
112.7685
20
8.1439
30
0.0
0
VERTEX
8
cut
10
110.1946
20
8.4559
30
0.0
0
VERTEX
8
cut
10
107.5828
20
8.7603
30
0.0
0
VERTEX
8
cut
10
104.9361
20
9.0561
30
0.0
0
VERTEX
8
cut
10
102.2579
20
9.3421
30
0.0
0
VERTEX
8
cut
10
99.5514
20
9.6173
30
0.0
0
VERTEX
8
cut
10
96.8199
20
9.8809
30
0.0
0
VERTEX
8
cut
10
94.0667
20
10.1316
30
0.0
0
VERTEX
8
cut
10
91.2953
20
10.3686
30
0.0
0
VERTEX
8
cut
10
88.5090
20
10.5909
30
0.0
0
VERTEX
8
cut
10
85.7112
20
10.7974
30
0.0
0
VERTEX
8
cut
10
82.9055
20
10.9871
30
0.0
0
VERTEX
8
cut
10
80.0953
20
11.1592
30
0.0
0
VERTEX
8
cut
10
77.2840
20
11.3126
30
0.0
0
VERTEX
8
cut
10
74.4753
20
11.4465
30
0.0
0
VERTEX
8
cut
10
71.6726
20
11.5600
30
0.0
0
VERTEX
8
cut
10
68.8795
20
11.6523
30
0.0
0
VERTEX
8
cut
10
66.0913
20
11.7231
30
0.0
0
VERTEX
8
cut
10
63.3072
20
11.7719
30
0.0
0
VERTEX
8
cut
10
60.5429
20
11.7981
30
0.0
0
VERTEX
8
cut
10
57.8020
20
11.8018
30
0.0
0
VERTEX
8
cut
10
55.0881
20
11.7832
30
0.0
0
VERTEX
8
cut
10
52.4046
20
11.7429
30
0.0
0
VERTEX
8
cut
10
49.7552
20
11.6820
30
0.0
0
VERTEX
8
cut
10
47.1433
20
11.6018
30
0.0
0
VERTEX
8
cut
10
44.5723
20
11.5041
30
0.0
0
VERTEX
8
cut
10
42.0457
20
11.3912
30
0.0
0
VERTEX
8
cut
10
39.5668
20
11.2657
30
0.0
0
VERTEX
8
cut
10
37.1388
20
11.1305
30
0.0
0
VERTEX
8
cut
10
34.7648
20
10.9889
30
0.0
0
VERTEX
8
cut
10
32.4481
20
10.8442
30
0.0
0
VERTEX
8
cut
10
30.1917
20
10.7000
30
0.0
0
VERTEX
8
cut
10
27.9984
20
10.4064
30
0.0
0
VERTEX
8
cut
10
25.8712
20
10.0926
30
0.0
0
VERTEX
8
cut
10
23.8127
20
9.7596
30
0.0
0
VERTEX
8
cut
10
21.8257
20
9.4089
30
0.0
0
VERTEX
8
cut
10
19.9125
20
9.0417
30
0.0
0
VERTEX
8
cut
10
18.0757
20
8.6596
30
0.0
0
VERTEX
8
cut
10
16.3176
20
8.2638
30
0.0
0
VERTEX
8
cut
10
14.6403
20
7.8558
30
0.0
0
VERTEX
8
cut
10
13.0458
20
7.4372
30
0.0
0
VERTEX
8
cut
10
11.5362
20
7.0094
30
0.0
0
VERTEX
8
cut
10
10.1132
20
6.5740
30
0.0
0
VERTEX
8
cut
10
8.7785
20
6.1323
30
0.0
0
VERTEX
8
cut
10
7.5336
20
5.6859
30
0.0
0
VERTEX
8
cut
10
6.3800
20
5.2362
30
0.0
0
VERTEX
8
cut
10
5.3190
20
4.7844
30
0.0
0
VERTEX
8
cut
10
4.3517
20
4.3321
30
0.0
0
VERTEX
8
cut
10
3.4791
20
3.8802
30
0.0
0
VERTEX
8
cut
10
2.7023
20
3.4302
30
0.0
0
VERTEX
8
cut
10
2.0219
20
2.9829
30
0.0
0
VERTEX
8
cut
10
1.4387
20
2.5395
30
0.0
0
VERTEX
8
cut
10
0.9531
20
2.1007
30
0.0
0
VERTEX
8
cut
10
0.5655
20
1.6674
30
0.0
0
VERTEX
8
cut
10
0.2764
20
1.2402
30
0.0
0
VERTEX
8
cut
10
0.0857
20
0.8197
30
0.0
0
VERTEX
8
cut
10
-0.0064
20
0.4062
30
0.0
0
VERTEX
8
cut
10
0.0000
20
0.0000
30
0.0
0
VERTEX
8
cut
10
0.1039
20
-0.3927
30
0.0
0
VERTEX
8
cut
10
0.3040
20
-0.7659
30
0.0
0
VERTEX
8
cut
10
0.6001
20
-1.1196
30
0.0
0
VERTEX
8
cut
10
0.9916
20
-1.4537
30
0.0
0
VERTEX
8
cut
10
1.4777
20
-1.7681
30
0.0
0
VERTEX
8
cut
10
2.0577
20
-2.0630
30
0.0
0
VERTEX
8
cut
10
2.7308
20
-2.3383
30
0.0
0
VERTEX
8
cut
10
3.4958
20
-2.5940
30
0.0
0
VERTEX
8
cut
10
4.3518
20
-2.8304
30
0.0
0
VERTEX
8
cut
10
5.2975
20
-3.0475
30
0.0
0
VERTEX
8
cut
10
6.3316
20
-3.2454
30
0.0
0
VERTEX
8
cut
10
7.4527
20
-3.4244
30
0.0
0
VERTEX
8
cut
10
8.6594
20
-3.5847
30
0.0
0
VERTEX
8
cut
10
9.9499
20
-3.7265
30
0.0
0
VERTEX
8
cut
10
11.3228
20
-3.8502
30
0.0
0
VERTEX
8
cut
10
12.7761
20
-3.9561
30
0.0
0
VERTEX
8
cut
10
14.3082
20
-4.0446
30
0.0
0
VERTEX
8
cut
10
15.9170
20
-4.1162
30
0.0
0
VERTEX
8
cut
10
17.6007
20
-4.1714
30
0.0
0
VERTEX
8
cut
10
19.3572
20
-4.2107
30
0.0
0
VERTEX
8
cut
10
21.1843
20
-4.2348
30
0.0
0
VERTEX
8
cut
10
23.0800
20
-4.2443
30
0.0
0
VERTEX
8
cut
10
25.0419
20
-4.2400
30
0.0
0
VERTEX
8
cut
10
27.0679
20
-4.2225
30
0.0
0
VERTEX
8
cut
10
29.1555
20
-4.1928
30
0.0
0
VERTEX
8
cut
10
31.3025
20
-4.1516
30
0.0
0
VERTEX
8
cut
10
33.5062
20
-4.0999
30
0.0
0
VERTEX
8
cut
10
35.7643
20
-4.0386
30
0.0
0
VERTEX
8
cut
10
38.0742
20
-3.9686
30
0.0
0
VERTEX
8
cut
10
40.4332
20
-3.8911
30
0.0
0
VERTEX
8
cut
10
42.8388
20
-3.8070
30
0.0
0
VERTEX
8
cut
10
45.2883
20
-3.7173
30
0.0
0
VERTEX
8
cut
10
47.7789
20
-3.6231
30
0.0
0
VERTEX
8
cut
10
50.3078
20
-3.5255
30
0.0
0
VERTEX
8
cut
10
52.8722
20
-3.4255
30
0.0
0
VERTEX
8
cut
10
55.4692
20
-3.3242
30
0.0
0
VERTEX
8
cut
10
58.0960
20
-3.2227
30
0.0
0
VERTEX
8
cut
10
60.7496
20
-3.1218
30
0.0
0
VERTEX
8
cut
10
63.4269
20
-3.0226
30
0.0
0
VERTEX
8
cut
10
66.1250
20
-2.9261
30
0.0
0
VERTEX
8
cut
10
68.8528
20
-2.8319
30
0.0
0
VERTEX
8
cut
10
71.6028
20
-2.7352
30
0.0
0
VERTEX
8
cut
10
74.3636
20
-2.6364
30
0.0
0
VERTEX
8
cut
10
77.1320
20
-2.5360
30
0.0
0
VERTEX
8
cut
10
79.9047
20
-2.4347
30
0.0
0
VERTEX
8
cut
10
82.6784
20
-2.3330
30
0.0
0
VERTEX
8
cut
10
85.4498
20
-2.2316
30
0.0
0
VERTEX
8
cut
10
88.2156
20
-2.1310
30
0.0
0
VERTEX
8
cut
10
90.9724
20
-2.0316
30
0.0
0
VERTEX
8
cut
10
93.7170
20
-1.9339
30
0.0
0
VERTEX
8
cut
10
96.4460
20
-1.8383
30
0.0
0
VERTEX
8
cut
10
99.1561
20
-1.7451
30
0.0
0
VERTEX
8
cut
10
101.8440
20
-1.6546
30
0.0
0
VERTEX
8
cut
10
104.5066
20
-1.5670
30
0.0
0
VERTEX
8
cut
10
107.1405
20
-1.4826
30
0.0
0
VERTEX
8
cut
10
109.7424
20
-1.4016
30
0.0
0
VERTEX
8
cut
10
112.3094
20
-1.3239
30
0.0
0
VERTEX
8
cut
10
114.8381
20
-1.2498
30
0.0
0
VERTEX
8
cut
10
117.3254
20
-1.1792
30
0.0
0
VERTEX
8
cut
10
119.7684
20
-1.1122
30
0.0
0
VERTEX
8
cut
10
122.1639
20
-1.0487
30
0.0
0
VERTEX
8
cut
10
124.5090
20
-0.9888
30
0.0
0
VERTEX
8
cut
10
126.8009
20
-0.9323
30
0.0
0
VERTEX
8
cut
10
129.0365
20
-0.8791
30
0.0
0
VERTEX
8
cut
10
131.2132
20
-0.8292
30
0.0
0
VERTEX
8
cut
10
133.3282
20
-0.7825
30
0.0
0
VERTEX
8
cut
10
135.3788
20
-0.7388
30
0.0
0
VERTEX
8
cut
10
137.3625
20
-0.6980
30
0.0
0
VERTEX
8
cut
10
139.2768
20
-0.6600
30
0.0
0
VERTEX
8
cut
10
141.1192
20
-0.6246
30
0.0
0
VERTEX
8
cut
10
142.8874
20
-0.5917
30
0.0
0
VERTEX
8
cut
10
144.5792
20
-0.5612
30
0.0
0
VERTEX
8
cut
10
146.1923
20
-0.5330
30
0.0
0
VERTEX
8
cut
10
147.7248
20
-0.5069
30
0.0
0
VERTEX
8
cut
10
149.1746
20
-0.4828
30
0.0
0
VERTEX
8
cut
10
150.5399
20
-0.4607
30
0.0
0
VERTEX
8
cut
10
151.8189
20
-0.4405
30
0.0
0
VERTEX
8
cut
10
153.0100
20
-0.4220
30
0.0
0
VERTEX
8
cut
10
154.1117
20
-0.4052
30
0.0
0
VERTEX
8
cut
10
155.1224
20
-0.3901
30
0.0
0
VERTEX
8
cut
10
156.0409
20
-0.3765
30
0.0
0
VERTEX
8
cut
10
156.8660
20
-0.3645
30
0.0
0
VERTEX
8
cut
10
157.5966
20
-0.3539
30
0.0
0
VERTEX
8
cut
10
158.2317
20
-0.3449
30
0.0
0
VERTEX
8
cut
10
158.7705
20
-0.3372
30
0.0
0
VERTEX
8
cut
10
159.2124
20
-0.3310
30
0.0
0
VERTEX
8
cut
10
159.5566
20
-0.3262
30
0.0
0
VERTEX
8
cut
10
159.8028
20
-0.3227
30
0.0
0
VERTEX
8
cut
10
159.9507
20
-0.3207
30
0.0
0
VERTEX
8
cut
10
160.0000
20
-0.3200
30
0.0
0
SEQEND
0
ENDSEC
0
EOF
