0
SECTION
2
ENTITIES
0
POLYLINE
8
cut
66
1
70
1
0
VERTEX
8
cut
10
128.0000
20
0.2560
30
0.0
0
VERTEX
8
cut
10
127.9615
20
0.2643
30
0.0
0
VERTEX
8
cut
10
127.8459
20
0.2894
30
0.0
0
VERTEX
8
cut
10
127.6535
20
0.3309
30
0.0
0
VERTEX
8
cut
10
127.3844
20
0.3889
30
0.0
0
VERTEX
8
cut
10
127.0390
20
0.4631
30
0.0
0
VERTEX
8
cut
10
126.6175
20
0.5531
30
0.0
0
VERTEX
8
cut
10
126.1206
20
0.6587
30
0.0
0
VERTEX
8
cut
10
125.5487
20
0.7794
30
0.0
0
VERTEX
8
cut
10
124.9025
20
0.9147
30
0.0
0
VERTEX
8
cut
10
124.1827
20
1.0642
30
0.0
0
VERTEX
8
cut
10
123.3902
20
1.2274
30
0.0
0
VERTEX
8
cut
10
122.5258
20
1.4034
30
0.0
0
VERTEX
8
cut
10
121.5905
20
1.5918
30
0.0
0
VERTEX
8
cut
10
120.5854
20
1.7918
30
0.0
0
VERTEX
8
cut
10
119.5116
20
2.0028
30
0.0
0
VERTEX
8
cut
10
118.3703
20
2.2238
30
0.0
0
VERTEX
8
cut
10
117.1630
20
2.4542
30
0.0
0
VERTEX
8
cut
10
115.8908
20
2.6931
30
0.0
0
VERTEX
8
cut
10
114.5554
20
2.9148
30
0.0
0
VERTEX
8
cut
10
113.1583
20
3.1461
30
0.0
0
VERTEX
8
cut
10
111.7011
20
3.3860
30
0.0
0
VERTEX
8
cut
10
110.1855
20
3.6332
30
0.0
0
VERTEX
8
cut
10
108.6132
20
3.8866
30
0.0
0
VERTEX
8
cut
10
106.9862
20
4.1451
30
0.0
0
VERTEX
8
cut
10
105.3063
20
4.4074
30
0.0
0
VERTEX
8
cut
10
103.5755
20
4.6725
30
0.0
0
VERTEX
8
cut
10
101.7958
20
4.9392
30
0.0
0
VERTEX
8
cut
10
99.9695
20
5.2065
30
0.0
0
VERTEX
8
cut
10
98.0985
20
5.4732
30
0.0
0
VERTEX
8
cut
10
96.1853
20
5.7383
30
0.0
0
VERTEX
8
cut
10
94.2320
20
6.0010
30
0.0
0
VERTEX
8
cut
10
92.2411
20
6.2602
30
0.0
0
VERTEX
8
cut
10
90.2148
20
6.5151
30
0.0
0
VERTEX
8
cut
10
88.1557
20
6.7647
30
0.0
0
VERTEX
8
cut
10
86.0662
20
7.0083
30
0.0
0
VERTEX
8
cut
10
83.9489
20
7.2448
30
0.0
0
VERTEX
8
cut
10
81.8063
20
7.4737
30
0.0
0
VERTEX
8
cut
10
79.6411
20
7.6939
30
0.0
0
VERTEX
8
cut
10
77.4559
20
7.9047
30
0.0
0
VERTEX
8
cut
10
75.2534
20
8.1053
30
0.0
0
VERTEX
8
cut
10
73.0362
20
8.2949
30
0.0
0
VERTEX
8
cut
10
70.8072
20
8.4727
30
0.0
0
VERTEX
8
cut
10
68.5690
20
8.6379
30
0.0
0
VERTEX
8
cut
10
66.3244
20
8.7897
30
0.0
0
VERTEX
8
cut
10
64.0762
20
8.9274
30
0.0
0
VERTEX
8
cut
10
61.8272
20
9.0501
30
0.0
0
VERTEX
8
cut
10
59.5803
20
9.1572
30
0.0
0
VERTEX
8
cut
10
57.3381
20
9.2480
30
0.0
0
VERTEX
8
cut
10
55.1036
20
9.3218
30
0.0
0
VERTEX
8
cut
10
52.8730
20
9.3785
30
0.0
0
VERTEX
8
cut
10
50.6458
20
9.4175
30
0.0
0
VERTEX
8
cut
10
48.4343
20
9.4385
30
0.0
0
VERTEX
8
cut
10
46.2416
20
9.4414
30
0.0
0
VERTEX
8
cut
10
44.0704
20
9.4266
30
0.0
0
VERTEX
8
cut
10
41.9237
20
9.3944
30
0.0
0
VERTEX
8
cut
10
39.8041
20
9.3456
30
0.0
0
VERTEX
8
cut
10
37.7146
20
9.2814
30
0.0
0
VERTEX
8
cut
10
35.6579
20
9.2033
30
0.0
0
VERTEX
8
cut
10
33.6366
20
9.1130
30
0.0
0
VERTEX
8
cut
10
31.6534
20
9.0126
30
0.0
0
VERTEX
8
cut
10
29.7110
20
8.9044
30
0.0
0
VERTEX
8
cut
10
27.8119
20
8.7911
30
0.0
0
VERTEX
8
cut
10
25.9585
20
8.6754
30
0.0
0
VERTEX
8
cut
10
24.1534
20
8.5600
30
0.0
0
VERTEX
8
cut
10
22.3987
20
8.3251
30
0.0
0
VERTEX
8
cut
10
20.6970
20
8.0740
30
0.0
0
VERTEX
8
cut
10
19.0502
20
7.8077
30
0.0
0
VERTEX
8
cut
10
17.4605
20
7.5271
30
0.0
0
VERTEX
8
cut
10
15.9300
20
7.2334
30
0.0
0
VERTEX
8
cut
10
14.4606
20
6.9276
30
0.0
0
VERTEX
8
cut
10
13.0541
20
6.6110
30
0.0
0
VERTEX
8
cut
10
11.7122
20
6.2847
30
0.0
0
VERTEX
8
cut
10
10.4367
20
5.9498
30
0.0
0
VERTEX
8
cut
10
9.2289
20
5.6076
30
0.0
0
VERTEX
8
cut
10
8.0905
20
5.2592
30
0.0
0
VERTEX
8
cut
10
7.0228
20
4.9059
30
0.0
0
VERTEX
8
cut
10
6.0269
20
4.5487
30
0.0
0
VERTEX
8
cut
10
5.1040
20
4.1889
30
0.0
0
VERTEX
8
cut
10
4.2552
20
3.8276
30
0.0
0
VERTEX
8
cut
10
3.4813
20
3.4656
30
0.0
0
VERTEX
8
cut
10
2.7833
20
3.1042
30
0.0
0
VERTEX
8
cut
10
2.1618
20
2.7441
30
0.0
0
VERTEX
8
cut
10
1.6175
20
2.3863
30
0.0
0
VERTEX
8
cut
10
1.1509
20
2.0316
30
0.0
0
VERTEX
8
cut
10
0.7625
20
1.6806
30
0.0
0
VERTEX
8
cut
10
0.4524
20
1.3339
30
0.0
0
VERTEX
8
cut
10
0.2211
20
0.9922
30
0.0
0
VERTEX
8
cut
10
0.0686
20
0.6557
30
0.0
0
VERTEX
8
cut
10
-0.0051
20
0.3249
30
0.0
0
VERTEX
8
cut
10
0.0000
20
0.0000
30
0.0
0
VERTEX
8
cut
10
0.0831
20
-0.3142
30
0.0
0
VERTEX
8
cut
10
0.2432
20
-0.6127
30
0.0
0
VERTEX
8
cut
10
0.4801
20
-0.8957
30
0.0
0
VERTEX
8
cut
10
0.7932
20
-1.1629
30
0.0
0
VERTEX
8
cut
10
1.1821
20
-1.4145
30
0.0
0
VERTEX
8
cut
10
1.6462
20
-1.6504
30
0.0
0
VERTEX
8
cut
10
2.1846
20
-1.8706
30
0.0
0
VERTEX
8
cut
10
2.7967
20
-2.0752
30
0.0
0
VERTEX
8
cut
10
3.4814
20
-2.2643
30
0.0
0
VERTEX
8
cut
10
4.2380
20
-2.4380
30
0.0
0
VERTEX
8
cut
10
5.0653
20
-2.5964
30
0.0
0
VERTEX
8
cut
10
5.9622
20
-2.7395
30
0.0
0
VERTEX
8
cut
10
6.9275
20
-2.8678
30
0.0
0
VERTEX
8
cut
10
7.9599
20
-2.9812
30
0.0
0
VERTEX
8
cut
10
9.0582
20
-3.0802
30
0.0
0
VERTEX
8
cut
10
10.2209
20
-3.1649
30
0.0
0
VERTEX
8
cut
10
11.4465
20
-3.2357
30
0.0
0
VERTEX
8
cut
10
12.7336
20
-3.2930
30
0.0
0
VERTEX
8
cut
10
14.0806
20
-3.3371
30
0.0
0
VERTEX
8
cut
10
15.4857
20
-3.3686
30
0.0
0
VERTEX
8
cut
10
16.9474
20
-3.3879
30
0.0
0
VERTEX
8
cut
10
18.4640
20
-3.3955
30
0.0
0
VERTEX
8
cut
10
20.0335
20
-3.3920
30
0.0
0
VERTEX
8
cut
10
21.6543
20
-3.3780
30
0.0
0
VERTEX
8
cut
10
23.3244
20
-3.3542
30
0.0
0
VERTEX
8
cut
10
25.0420
20
-3.3213
30
0.0
0
VERTEX
8
cut
10
26.8050
20
-3.2799
30
0.0
0
VERTEX
8
cut
10
28.6114
20
-3.2309
30
0.0
0
VERTEX
8
cut
10
30.4593
20
-3.1749
30
0.0
0
VERTEX
8
cut
10
32.3466
20
-3.1129
30
0.0
0
VERTEX
8
cut
10
34.2711
20
-3.0456
30
0.0
0
VERTEX
8
cut
10
36.2306
20
-2.9738
30
0.0
0
VERTEX
8
cut
10
38.2231
20
-2.8985
30
0.0
0
VERTEX
8
cut
10
40.2462
20
-2.8204
30
0.0
0
VERTEX
8
cut
10
42.2977
20
-2.7404
30
0.0
0
VERTEX
8
cut
10
44.3754
20
-2.6594
30
0.0
0
VERTEX
8
cut
10
46.4768
20
-2.5781
30
0.0
0
VERTEX
8
cut
10
48.5997
20
-2.4974
30
0.0
0
VERTEX
8
cut
10
50.7415
20
-2.4181
30
0.0
0
VERTEX
8
cut
10
52.9000
20
-2.3409
30
0.0
0
VERTEX
8
cut
10
55.0823
20
-2.2655
30
0.0
0
VERTEX
8
cut
10
57.2822
20
-2.1882
30
0.0
0
VERTEX
8
cut
10
59.4909
20
-2.1091
30
0.0
0
VERTEX
8
cut
10
61.7056
20
-2.0288
30
0.0
0
VERTEX
8
cut
10
63.9238
20
-1.9477
30
0.0
0
VERTEX
8
cut
10
66.1428
20
-1.8664
30
0.0
0
VERTEX
8
cut
10
68.3599
20
-1.7853
30
0.0
0
VERTEX
8
cut
10
70.5725
20
-1.7048
30
0.0
0
VERTEX
8
cut
10
72.7779
20
-1.6253
30
0.0
0
VERTEX
8
cut
10
74.9736
20
-1.5472
30
0.0
0
VERTEX
8
cut
10
77.1568
20
-1.4707
30
0.0
0
VERTEX
8
cut
10
79.3249
20
-1.3961
30
0.0
0
VERTEX
8
cut
10
81.4752
20
-1.3237
30
0.0
0
VERTEX
8
cut
10
83.6053
20
-1.2536
30
0.0
0
VERTEX
8
cut
10
85.7124
20
-1.1861
30
0.0
0
VERTEX
8
cut
10
87.7940
20
-1.1212
30
0.0
0
VERTEX
8
cut
10
89.8475
20
-1.0591
30
0.0
0
VERTEX
8
cut
10
91.8705
20
-0.9998
30
0.0
0
VERTEX
8
cut
10
93.8603
20
-0.9433
30
0.0
0
VERTEX
8
cut
10
95.8147
20
-0.8897
30
0.0
0
VERTEX
8
cut
10
97.7311
20
-0.8390
30
0.0
0
VERTEX
8
cut
10
99.6072
20
-0.7910
30
0.0
0
VERTEX
8
cut
10
101.4407
20
-0.7458
30
0.0
0
VERTEX
8
cut
10
103.2292
20
-0.7033
30
0.0
0
VERTEX
8
cut
10
104.9706
20
-0.6634
30
0.0
0
VERTEX
8
cut
10
106.6625
20
-0.6260
30
0.0
0
VERTEX
8
cut
10
108.3031
20
-0.5910
30
0.0
0
VERTEX
8
cut
10
109.8900
20
-0.5584
30
0.0
0
VERTEX
8
cut
10
111.4214
20
-0.5280
30
0.0
0
VERTEX
8
cut
10
112.8954
20
-0.4997
30
0.0
0
VERTEX
8
cut
10
114.3099
20
-0.4734
30
0.0
0
VERTEX
8
cut
10
115.6633
20
-0.4490
30
0.0
0
VERTEX
8
cut
10
116.9539
20
-0.4264
30
0.0
0
VERTEX
8
cut
10
118.1798
20
-0.4055
30
0.0
0
VERTEX
8
cut
10
119.3397
20
-0.3863
30
0.0
0
VERTEX
8
cut
10
120.4319
20
-0.3686
30
0.0
0
VERTEX
8
cut
10
121.4552
20
-0.3524
30
0.0
0
VERTEX
8
cut
10
122.4080
20
-0.3376
30
0.0
0
VERTEX
8
cut
10
123.2893
20
-0.3242
30
0.0
0
VERTEX
8
cut
10
124.0979
20
-0.3121
30
0.0
0
VERTEX
8
cut
10
124.8327
20
-0.3012
30
0.0
0
VERTEX
8
cut
10
125.4928
20
-0.2916
30
0.0
0
VERTEX
8
cut
10
126.0773
20
-0.2831
30
0.0
0
VERTEX
8
cut
10
126.5854
20
-0.2759
30
0.0
0
VERTEX
8
cut
10
127.0164
20
-0.2698
30
0.0
0
VERTEX
8
cut
10
127.3699
20
-0.2648
30
0.0
0
VERTEX
8
cut
10
127.6453
20
-0.2609
30
0.0
0
VERTEX
8
cut
10
127.8423
20
-0.2582
30
0.0
0
VERTEX
8
cut
10
127.9606
20
-0.2565
30
0.0
0
VERTEX
8
cut
10
128.0000
20
-0.2560
30
0.0
0
SEQEND
0
ENDSEC
0
EOF
