0
SECTION
2
ENTITIES
0
POLYLINE
8
cut
66
1
70
1
0
VERTEX
8
cut
10
26.0000
20
0.0000
30
0.0
0
VERTEX
8
cut
10
25.8287
20
5.8469
30
0.0
0
VERTEX
8
cut
10
25.3158
20
9.8996
30
0.0
0
VERTEX
8
cut
10
24.4638
20
13.3741
30
0.0
0
VERTEX
8
cut
10
23.2766
20
16.4284
30
0.0
0
VERTEX
8
cut
10
21.7591
20
19.1138
30
0.0
0
VERTEX
8
cut
10
19.9156
20
21.4475
30
0.0
0
VERTEX
8
cut
10
17.7486
20
23.4328
30
0.0
0
VERTEX
8
cut
10
15.2550
20
25.0671
30
0.0
0
VERTEX
8
cut
10
12.4188
20
26.3456
30
0.0
0
VERTEX
8
cut
10
9.1925
20
27.2632
30
0.0
0
VERTEX
8
cut
10
5.4293
20
27.8156
30
0.0
0
VERTEX
8
cut
10
0.0000
20
28.0000
30
0.0
0
VERTEX
8
cut
10
-5.4293
20
27.8156
30
0.0
0
VERTEX
8
cut
10
-9.1925
20
27.2632
30
0.0
0
VERTEX
8
cut
10
-12.4188
20
26.3456
30
0.0
0
VERTEX
8
cut
10
-15.2550
20
25.0671
30
0.0
0
VERTEX
8
cut
10
-17.7486
20
23.4328
30
0.0
0
VERTEX
8
cut
10
-19.9156
20
21.4475
30
0.0
0
VERTEX
8
cut
10
-21.7591
20
19.1138
30
0.0
0
VERTEX
8
cut
10
-23.2766
20
16.4284
30
0.0
0
VERTEX
8
cut
10
-24.4638
20
13.3741
30
0.0
0
VERTEX
8
cut
10
-25.3158
20
9.8996
30
0.0
0
VERTEX
8
cut
10
-25.8287
20
5.8469
30
0.0
0
VERTEX
8
cut
10
-26.0000
20
0.0000
30
0.0
0
VERTEX
8
cut
10
-25.8287
20
-5.8469
30
0.0
0
VERTEX
8
cut
10
-25.3158
20
-9.8996
30
0.0
0
VERTEX
8
cut
10
-24.4638
20
-13.3741
30
0.0
0
VERTEX
8
cut
10
-23.2766
20
-16.4284
30
0.0
0
VERTEX
8
cut
10
-21.7591
20
-19.1138
30
0.0
0
VERTEX
8
cut
10
-19.9156
20
-21.4475
30
0.0
0
VERTEX
8
cut
10
-17.7486
20
-23.4328
30
0.0
0
VERTEX
8
cut
10
-15.2550
20
-25.0671
30
0.0
0
VERTEX
8
cut
10
-12.4188
20
-26.3456
30
0.0
0
VERTEX
8
cut
10
-9.1925
20
-27.2632
30
0.0
0
VERTEX
8
cut
10
-5.4293
20
-27.8156
30
0.0
0
VERTEX
8
cut
10
-0.0000
20
-28.0000
30
0.0
0
VERTEX
8
cut
10
5.4293
20
-27.8156
30
0.0
0
VERTEX
8
cut
10
9.1925
20
-27.2632
30
0.0
0
VERTEX
8
cut
10
12.4188
20
-26.3456
30
0.0
0
VERTEX
8
cut
10
15.2550
20
-25.0671
30
0.0
0
VERTEX
8
cut
10
17.7486
20
-23.4328
30
0.0
0
VERTEX
8
cut
10
19.9156
20
-21.4475
30
0.0
0
VERTEX
8
cut
10
21.7591
20
-19.1138
30
0.0
0
VERTEX
8
cut
10
23.2766
20
-16.4284
30
0.0
0
VERTEX
8
cut
10
24.4638
20
-13.3741
30
0.0
0
VERTEX
8
cut
10
25.3158
20
-9.8996
30
0.0
0
VERTEX
8
cut
10
25.8287
20
-5.8469
30
0.0
0
SEQEND
0
POLYLINE
8
cut
66
1
70
1
0
VERTEX
8
cut
10
102.0000
20
0.0000
30
0.0
0
VERTEX
8
cut
10
101.7760
20
7.9351
30
0.0
0
VERTEX
8
cut
10
101.1053
20
13.4351
30
0.0
0
VERTEX
8
cut
10
99.9911
20
18.1506
30
0.0
0
VERTEX
8
cut
10
98.4387
20
22.2957
30
0.0
0
VERTEX
8
cut
10
96.4541
20
25.9402
30
0.0
0
VERTEX
8
cut
10
94.0434
20
29.1074
30
0.0
0
VERTEX
8
cut
10
91.2097
20
31.8017
30
0.0
0
VERTEX
8
cut
10
87.9488
20
34.0197
30
0.0
0
VERTEX
8
cut
10
84.2400
20
35.7548
30
0.0
0
VERTEX
8
cut
10
80.0209
20
37.0000
30
0.0
0
VERTEX
8
cut
10
75.0998
20
37.7497
30
0.0
0
VERTEX
8
cut
10
68.0000
20
38.0000
30
0.0
0
VERTEX
8
cut
10
60.9002
20
37.7497
30
0.0
0
VERTEX
8
cut
10
55.9791
20
37.0000
30
0.0
0
VERTEX
8
cut
10
51.7600
20
35.7548
30
0.0
0
VERTEX
8
cut
10
48.0512
20
34.0197
30
0.0
0
VERTEX
8
cut
10
44.7903
20
31.8017
30
0.0
0
VERTEX
8
cut
10
41.9566
20
29.1074
30
0.0
0
VERTEX
8
cut
10
39.5459
20
25.9402
30
0.0
0
VERTEX
8
cut
10
37.5613
20
22.2957
30
0.0
0
VERTEX
8
cut
10
36.0089
20
18.1506
30
0.0
0
VERTEX
8
cut
10
34.8947
20
13.4351
30
0.0
0
VERTEX
8
cut
10
34.2240
20
7.9351
30
0.0
0
VERTEX
8
cut
10
34.0000
20
0.0000
30
0.0
0
VERTEX
8
cut
10
34.2240
20
-7.9351
30
0.0
0
VERTEX
8
cut
10
34.8947
20
-13.4351
30
0.0
0
VERTEX
8
cut
10
36.0089
20
-18.1506
30
0.0
0
VERTEX
8
cut
10
37.5613
20
-22.2957
30
0.0
0
VERTEX
8
cut
10
39.5459
20
-25.9402
30
0.0
0
VERTEX
8
cut
10
41.9566
20
-29.1074
30
0.0
0
VERTEX
8
cut
10
44.7903
20
-31.8017
30
0.0
0
VERTEX
8
cut
10
48.0512
20
-34.0197
30
0.0
0
VERTEX
8
cut
10
51.7600
20
-35.7548
30
0.0
0
VERTEX
8
cut
10
55.9791
20
-37.0000
30
0.0
0
VERTEX
8
cut
10
60.9002
20
-37.7497
30
0.0
0
VERTEX
8
cut
10
68.0000
20
-38.0000
30
0.0
0
VERTEX
8
cut
10
75.0998
20
-37.7497
30
0.0
0
VERTEX
8
cut
10
80.0209
20
-37.0000
30
0.0
0
VERTEX
8
cut
10
84.2400
20
-35.7548
30
0.0
0
VERTEX
8
cut
10
87.9488
20
-34.0197
30
0.0
0
VERTEX
8
cut
10
91.2097
20
-31.8017
30
0.0
0
VERTEX
8
cut
10
94.0434
20
-29.1074
30
0.0
0
VERTEX
8
cut
10
96.4541
20
-25.9402
30
0.0
0
VERTEX
8
cut
10
98.4387
20
-22.2957
30
0.0
0
VERTEX
8
cut
10
99.9911
20
-18.1506
30
0.0
0
VERTEX
8
cut
10
101.1053
20
-13.4351
30
0.0
0
VERTEX
8
cut
10
101.7760
20
-7.9351
30
0.0
0
SEQEND
0
POLYLINE
8
cut
66
1
70
1
0
VERTEX
8
cut
10
191.0000
20
0.0000
30
0.0
0
VERTEX
8
cut
10
190.7431
20
9.6056
30
0.0
0
VERTEX
8
cut
10
189.9737
20
16.2636
30
0.0
0
VERTEX
8
cut
10
188.6957
20
21.9718
30
0.0
0
VERTEX
8
cut
10
186.9149
20
26.9896
30
0.0
0
VERTEX
8
cut
10
184.6386
20
31.4013
30
0.0
0
VERTEX
8
cut
10
181.8733
20
35.2352
30
0.0
0
VERTEX
8
cut
10
178.6229
20
38.4968
30
0.0
0
VERTEX
8
cut
10
174.8825
20
41.1817
30
0.0
0
VERTEX
8
cut
10
170.6282
20
43.2821
30
0.0
0
VERTEX
8
cut
10
165.7887
20
44.7895
30
0.0
0
VERTEX
8
cut
10
160.1439
20
45.6970
30
0.0
0
VERTEX
8
cut
10
152.0000
20
46.0000
30
0.0
0
VERTEX
8
cut
10
143.8561
20
45.6970
30
0.0
0
VERTEX
8
cut
10
138.2113
20
44.7895
30
0.0
0
VERTEX
8
cut
10
133.3718
20
43.2821
30
0.0
0
VERTEX
8
cut
10
129.1175
20
41.1817
30
0.0
0
VERTEX
8
cut
10
125.3771
20
38.4968
30
0.0
0
VERTEX
8
cut
10
122.1267
20
35.2352
30
0.0
0
VERTEX
8
cut
10
119.3614
20
31.4013
30
0.0
0
VERTEX
8
cut
10
117.0851
20
26.9896
30
0.0
0
VERTEX
8
cut
10
115.3043
20
21.9718
30
0.0
0
VERTEX
8
cut
10
114.0263
20
16.2636
30
0.0
0
VERTEX
8
cut
10
113.2569
20
9.6056
30
0.0
0
VERTEX
8
cut
10
113.0000
20
0.0000
30
0.0
0
VERTEX
8
cut
10
113.2569
20
-9.6056
30
0.0
0
VERTEX
8
cut
10
114.0263
20
-16.2636
30
0.0
0
VERTEX
8
cut
10
115.3043
20
-21.9718
30
0.0
0
VERTEX
8
cut
10
117.0851
20
-26.9896
30
0.0
0
VERTEX
8
cut
10
119.3614
20
-31.4013
30
0.0
0
VERTEX
8
cut
10
122.1267
20
-35.2352
30
0.0
0
VERTEX
8
cut
10
125.3771
20
-38.4968
30
0.0
0
VERTEX
8
cut
10
129.1175
20
-41.1817
30
0.0
0
VERTEX
8
cut
10
133.3718
20
-43.2821
30
0.0
0
VERTEX
8
cut
10
138.2113
20
-44.7895
30
0.0
0
VERTEX
8
cut
10
143.8561
20
-45.6970
30
0.0
0
VERTEX
8
cut
10
152.0000
20
-46.0000
30
0.0
0
VERTEX
8
cut
10
160.1439
20
-45.6970
30
0.0
0
VERTEX
8
cut
10
165.7887
20
-44.7895
30
0.0
0
VERTEX
8
cut
10
170.6282
20
-43.2821
30
0.0
0
VERTEX
8
cut
10
174.8825
20
-41.1817
30
0.0
0
VERTEX
8
cut
10
178.6229
20
-38.4968
30
0.0
0
VERTEX
8
cut
10
181.8733
20
-35.2352
30
0.0
0
VERTEX
8
cut
10
184.6386
20
-31.4013
30
0.0
0
VERTEX
8
cut
10
186.9149
20
-26.9896
30
0.0
0
VERTEX
8
cut
10
188.6957
20
-21.9718
30
0.0
0
VERTEX
8
cut
10
189.9737
20
-16.2636
30
0.0
0
VERTEX
8
cut
10
190.7431
20
-9.6056
30
0.0
0
SEQEND
0
POLYLINE
8
cut
66
1
70
1
0
VERTEX
8
cut
10
286.0000
20
0.0000
30
0.0
0
VERTEX
8
cut
10
285.7365
20
10.0233
30
0.0
0
VERTEX
8
cut
10
284.9474
20
16.9707
30
0.0
0
VERTEX
8
cut
10
283.6366
20
22.9271
30
0.0
0
VERTEX
8
cut
10
281.8102
20
28.1631
30
0.0
0
VERTEX
8
cut
10
279.4755
20
32.7666
30
0.0
0
VERTEX
8
cut
10
276.6393
20
36.7672
30
0.0
0
VERTEX
8
cut
10
273.3055
20
40.1706
30
0.0
0
VERTEX
8
cut
10
269.4692
20
42.9722
30
0.0
0
VERTEX
8
cut
10
265.1059
20
45.1639
30
0.0
0
VERTEX
8
cut
10
260.1423
20
46.7369
30
0.0
0
VERTEX
8
cut
10
254.3527
20
47.6838
30
0.0
0
VERTEX
8
cut
10
246.0000
20
48.0000
30
0.0
0
VERTEX
8
cut
10
237.6473
20
47.6838
30
0.0
0
VERTEX
8
cut
10
231.8577
20
46.7369
30
0.0
0
VERTEX
8
cut
10
226.8941
20
45.1639
30
0.0
0
VERTEX
8
cut
10
222.5308
20
42.9722
30
0.0
0
VERTEX
8
cut
10
218.6945
20
40.1706
30
0.0
0
VERTEX
8
cut
10
215.3607
20
36.7672
30
0.0
0
VERTEX
8
cut
10
212.5245
20
32.7666
30
0.0
0
VERTEX
8
cut
10
210.1898
20
28.1631
30
0.0
0
VERTEX
8
cut
10
208.3634
20
22.9271
30
0.0
0
VERTEX
8
cut
10
207.0526
20
16.9707
30
0.0
0
VERTEX
8
cut
10
206.2635
20
10.0233
30
0.0
0
VERTEX
8
cut
10
206.0000
20
0.0000
30
0.0
0
VERTEX
8
cut
10
206.2635
20
-10.0233
30
0.0
0
VERTEX
8
cut
10
207.0526
20
-16.9707
30
0.0
0
VERTEX
8
cut
10
208.3634
20
-22.9271
30
0.0
0
VERTEX
8
cut
10
210.1898
20
-28.1631
30
0.0
0
VERTEX
8
cut
10
212.5245
20
-32.7666
30
0.0
0
VERTEX
8
cut
10
215.3607
20
-36.7672
30
0.0
0
VERTEX
8
cut
10
218.6945
20
-40.1706
30
0.0
0
VERTEX
8
cut
10
222.5308
20
-42.9722
30
0.0
0
VERTEX
8
cut
10
226.8941
20
-45.1639
30
0.0
0
VERTEX
8
cut
10
231.8577
20
-46.7369
30
0.0
0
VERTEX
8
cut
10
237.6473
20
-47.6838
30
0.0
0
VERTEX
8
cut
10
246.0000
20
-48.0000
30
0.0
0
VERTEX
8
cut
10
254.3527
20
-47.6838
30
0.0
0
VERTEX
8
cut
10
260.1423
20
-46.7369
30
0.0
0
VERTEX
8
cut
10
265.1059
20
-45.1639
30
0.0
0
VERTEX
8
cut
10
269.4692
20
-42.9722
30
0.0
0
VERTEX
8
cut
10
273.3055
20
-40.1706
30
0.0
0
VERTEX
8
cut
10
276.6393
20
-36.7672
30
0.0
0
VERTEX
8
cut
10
279.4755
20
-32.7666
30
0.0
0
VERTEX
8
cut
10
281.8102
20
-28.1631
30
0.0
0
VERTEX
8
cut
10
283.6366
20
-22.9271
30
0.0
0
VERTEX
8
cut
10
284.9474
20
-16.9707
30
0.0
0
VERTEX
8
cut
10
285.7365
20
-10.0233
30
0.0
0
SEQEND
0
POLYLINE
8
cut
66
1
70
1
0
VERTEX
8
cut
10
380.0000
20
0.0000
30
0.0
0
VERTEX
8
cut
10
379.7497
20
9.3968
30
0.0
0
VERTEX
8
cut
10
379.0000
20
15.9100
30
0.0
0
VERTEX
8
cut
10
377.7548
20
21.4941
30
0.0
0
VERTEX
8
cut
10
376.0197
20
26.4029
30
0.0
0
VERTEX
8
cut
10
373.8017
20
30.7187
30
0.0
0
VERTEX
8
cut
10
371.1074
20
34.4692
30
0.0
0
VERTEX
8
cut
10
367.9402
20
37.6599
30
0.0
0
VERTEX
8
cut
10
364.2957
20
40.2865
30
0.0
0
VERTEX
8
cut
10
360.1506
20
42.3412
30
0.0
0
VERTEX
8
cut
10
355.4351
20
43.8158
30
0.0
0
VERTEX
8
cut
10
349.9351
20
44.7036
30
0.0
0
VERTEX
8
cut
10
342.0000
20
45.0000
30
0.0
0
VERTEX
8
cut
10
334.0649
20
44.7036
30
0.0
0
VERTEX
8
cut
10
328.5649
20
43.8158
30
0.0
0
VERTEX
8
cut
10
323.8494
20
42.3412
30
0.0
0
VERTEX
8
cut
10
319.7043
20
40.2865
30
0.0
0
VERTEX
8
cut
10
316.0598
20
37.6599
30
0.0
0
VERTEX
8
cut
10
312.8926
20
34.4692
30
0.0
0
VERTEX
8
cut
10
310.1983
20
30.7187
30
0.0
0
VERTEX
8
cut
10
307.9803
20
26.4029
30
0.0
0
VERTEX
8
cut
10
306.2452
20
21.4941
30
0.0
0
VERTEX
8
cut
10
305.0000
20
15.9100
30
0.0
0
VERTEX
8
cut
10
304.2503
20
9.3968
30
0.0
0
VERTEX
8
cut
10
304.0000
20
0.0000
30
0.0
0
VERTEX
8
cut
10
304.2503
20
-9.3968
30
0.0
0
VERTEX
8
cut
10
305.0000
20
-15.9100
30
0.0
0
VERTEX
8
cut
10
306.2452
20
-21.4941
30
0.0
0
VERTEX
8
cut
10
307.9803
20
-26.4029
30
0.0
0
VERTEX
8
cut
10
310.1983
20
-30.7187
30
0.0
0
VERTEX
8
cut
10
312.8926
20
-34.4692
30
0.0
0
VERTEX
8
cut
10
316.0598
20
-37.6599
30
0.0
0
VERTEX
8
cut
10
319.7043
20
-40.2865
30
0.0
0
VERTEX
8
cut
10
323.8494
20
-42.3412
30
0.0
0
VERTEX
8
cut
10
328.5649
20
-43.8158
30
0.0
0
VERTEX
8
cut
10
334.0649
20
-44.7036
30
0.0
0
VERTEX
8
cut
10
342.0000
20
-45.0000
30
0.0
0
VERTEX
8
cut
10
349.9351
20
-44.7036
30
0.0
0
VERTEX
8
cut
10
355.4351
20
-43.8158
30
0.0
0
VERTEX
8
cut
10
360.1506
20
-42.3412
30
0.0
0
VERTEX
8
cut
10
364.2957
20
-40.2865
30
0.0
0
VERTEX
8
cut
10
367.9402
20
-37.6599
30
0.0
0
VERTEX
8
cut
10
371.1074
20
-34.4692
30
0.0
0
VERTEX
8
cut
10
373.8017
20
-30.7187
30
0.0
0
VERTEX
8
cut
10
376.0197
20
-26.4029
30
0.0
0
VERTEX
8
cut
10
377.7548
20
-21.4941
30
0.0
0
VERTEX
8
cut
10
379.0000
20
-15.9100
30
0.0
0
VERTEX
8
cut
10
379.7497
20
-9.3968
30
0.0
0
SEQEND
0
POLYLINE
8
cut
66
1
70
1
0
VERTEX
8
cut
10
467.0000
20
0.0000
30
0.0
0
VERTEX
8
cut
10
466.7826
20
8.3527
30
0.0
0
VERTEX
8
cut
10
466.1316
20
14.1423
30
0.0
0
VERTEX
8
cut
10
465.0502
20
19.1059
30
0.0
0
VERTEX
8
cut
10
463.5434
20
23.4692
30
0.0
0
VERTEX
8
cut
10
461.6173
20
27.3055
30
0.0
0
VERTEX
8
cut
10
459.2774
20
30.6393
30
0.0
0
VERTEX
8
cut
10
456.5270
20
33.4755
30
0.0
0
VERTEX
8
cut
10
453.3621
20
35.8102
30
0.0
0
VERTEX
8
cut
10
449.7624
20
37.6366
30
0.0
0
VERTEX
8
cut
10
445.6674
20
38.9474
30
0.0
0
VERTEX
8
cut
10
440.8910
20
39.7365
30
0.0
0
VERTEX
8
cut
10
434.0000
20
40.0000
30
0.0
0
VERTEX
8
cut
10
427.1090
20
39.7365
30
0.0
0
VERTEX
8
cut
10
422.3326
20
38.9474
30
0.0
0
VERTEX
8
cut
10
418.2376
20
37.6366
30
0.0
0
VERTEX
8
cut
10
414.6379
20
35.8102
30
0.0
0
VERTEX
8
cut
10
411.4730
20
33.4755
30
0.0
0
VERTEX
8
cut
10
408.7226
20
30.6393
30
0.0
0
VERTEX
8
cut
10
406.3827
20
27.3055
30
0.0
0
VERTEX
8
cut
10
404.4566
20
23.4692
30
0.0
0
VERTEX
8
cut
10
402.9498
20
19.1059
30
0.0
0
VERTEX
8
cut
10
401.8684
20
14.1423
30
0.0
0
VERTEX
8
cut
10
401.2174
20
8.3527
30
0.0
0
VERTEX
8
cut
10
401.0000
20
0.0000
30
0.0
0
VERTEX
8
cut
10
401.2174
20
-8.3527
30
0.0
0
VERTEX
8
cut
10
401.8684
20
-14.1423
30
0.0
0
VERTEX
8
cut
10
402.9498
20
-19.1059
30
0.0
0
VERTEX
8
cut
10
404.4566
20
-23.4692
30
0.0
0
VERTEX
8
cut
10
406.3827
20
-27.3055
30
0.0
0
VERTEX
8
cut
10
408.7226
20
-30.6393
30
0.0
0
VERTEX
8
cut
10
411.4730
20
-33.4755
30
0.0
0
VERTEX
8
cut
10
414.6379
20
-35.8102
30
0.0
0
VERTEX
8
cut
10
418.2376
20
-37.6366
30
0.0
0
VERTEX
8
cut
10
422.3326
20
-38.9474
30
0.0
0
VERTEX
8
cut
10
427.1090
20
-39.7365
30
0.0
0
VERTEX
8
cut
10
434.0000
20
-40.0000
30
0.0
0
VERTEX
8
cut
10
440.8910
20
-39.7365
30
0.0
0
VERTEX
8
cut
10
445.6674
20
-38.9474
30
0.0
0
VERTEX
8
cut
10
449.7624
20
-37.6366
30
0.0
0
VERTEX
8
cut
10
453.3621
20
-35.8102
30
0.0
0
VERTEX
8
cut
10
456.5270
20
-33.4755
30
0.0
0
VERTEX
8
cut
10
459.2774
20
-30.6393
30
0.0
0
VERTEX
8
cut
10
461.6173
20
-27.3055
30
0.0
0
VERTEX
8
cut
10
463.5434
20
-23.4692
30
0.0
0
VERTEX
8
cut
10
465.0502
20
-19.1059
30
0.0
0
VERTEX
8
cut
10
466.1316
20
-14.1423
30
0.0
0
VERTEX
8
cut
10
466.7826
20
-8.3527
30
0.0
0
SEQEND
0
POLYLINE
8
cut
66
1
70
1
0
VERTEX
8
cut
10
543.0000
20
0.0000
30
0.0
0
VERTEX
8
cut
10
542.8221
20
6.8910
30
0.0
0
VERTEX
8
cut
10
542.2895
20
11.6674
30
0.0
0
VERTEX
8
cut
10
541.4047
20
15.7624
30
0.0
0
VERTEX
8
cut
10
540.1719
20
19.3621
30
0.0
0
VERTEX
8
cut
10
538.5959
20
22.5270
30
0.0
0
VERTEX
8
cut
10
536.6815
20
25.2774
30
0.0
0
VERTEX
8
cut
10
534.4312
20
27.6173
30
0.0
0
VERTEX
8
cut
10
531.8417
20
29.5434
30
0.0
0
VERTEX
8
cut
10
528.8965
20
31.0502
30
0.0
0
VERTEX
8
cut
10
525.5460
20
32.1316
30
0.0
0
VERTEX
8
cut
10
521.6381
20
32.7826
30
0.0
0
VERTEX
8
cut
10
516.0000
20
33.0000
30
0.0
0
VERTEX
8
cut
10
510.3619
20
32.7826
30
0.0
0
VERTEX
8
cut
10
506.4540
20
32.1316
30
0.0
0
VERTEX
8
cut
10
503.1035
20
31.0502
30
0.0
0
VERTEX
8
cut
10
500.1583
20
29.5434
30
0.0
0
VERTEX
8
cut
10
497.5688
20
27.6173
30
0.0
0
VERTEX
8
cut
10
495.3185
20
25.2774
30
0.0
0
VERTEX
8
cut
10
493.4041
20
22.5270
30
0.0
0
VERTEX
8
cut
10
491.8281
20
19.3621
30
0.0
0
VERTEX
8
cut
10
490.5953
20
15.7624
30
0.0
0
VERTEX
8
cut
10
489.7105
20
11.6674
30
0.0
0
VERTEX
8
cut
10
489.1779
20
6.8910
30
0.0
0
VERTEX
8
cut
10
489.0000
20
0.0000
30
0.0
0
VERTEX
8
cut
10
489.1779
20
-6.8910
30
0.0
0
VERTEX
8
cut
10
489.7105
20
-11.6674
30
0.0
0
VERTEX
8
cut
10
490.5953
20
-15.7624
30
0.0
0
VERTEX
8
cut
10
491.8281
20
-19.3621
30
0.0
0
VERTEX
8
cut
10
493.4041
20
-22.5270
30
0.0
0
VERTEX
8
cut
10
495.3185
20
-25.2774
30
0.0
0
VERTEX
8
cut
10
497.5688
20
-27.6173
30
0.0
0
VERTEX
8
cut
10
500.1583
20
-29.5434
30
0.0
0
VERTEX
8
cut
10
503.1035
20
-31.0502
30
0.0
0
VERTEX
8
cut
10
506.4540
20
-32.1316
30
0.0
0
VERTEX
8
cut
10
510.3619
20
-32.7826
30
0.0
0
VERTEX
8
cut
10
516.0000
20
-33.0000
30
0.0
0
VERTEX
8
cut
10
521.6381
20
-32.7826
30
0.0
0
VERTEX
8
cut
10
525.5460
20
-32.1316
30
0.0
0
VERTEX
8
cut
10
528.8965
20
-31.0502
30
0.0
0
VERTEX
8
cut
10
531.8417
20
-29.5434
30
0.0
0
VERTEX
8
cut
10
534.4312
20
-27.6173
30
0.0
0
VERTEX
8
cut
10
536.6815
20
-25.2774
30
0.0
0
VERTEX
8
cut
10
538.5959
20
-22.5270
30
0.0
0
VERTEX
8
cut
10
540.1719
20
-19.3621
30
0.0
0
VERTEX
8
cut
10
541.4047
20
-15.7624
30
0.0
0
VERTEX
8
cut
10
542.2895
20
-11.6674
30
0.0
0
VERTEX
8
cut
10
542.8221
20
-6.8910
30
0.0
0
SEQEND
0
POLYLINE
8
cut
66
1
70
1
0
VERTEX
8
cut
10
606.0000
20
0.0000
30
0.0
0
VERTEX
8
cut
10
605.8683
20
4.8028
30
0.0
0
VERTEX
8
cut
10
605.4737
20
8.1318
30
0.0
0
VERTEX
8
cut
10
604.8183
20
10.9859
30
0.0
0
VERTEX
8
cut
10
603.9051
20
13.4948
30
0.0
0
VERTEX
8
cut
10
602.7377
20
15.7007
30
0.0
0
VERTEX
8
cut
10
601.3197
20
17.6176
30
0.0
0
VERTEX
8
cut
10
599.6527
20
19.2484
30
0.0
0
VERTEX
8
cut
10
597.7346
20
20.5909
30
0.0
0
VERTEX
8
cut
10
595.5529
20
21.6410
30
0.0
0
VERTEX
8
cut
10
593.0711
20
22.3947
30
0.0
0
VERTEX
8
cut
10
590.1764
20
22.8485
30
0.0
0
VERTEX
8
cut
10
586.0000
20
23.0000
30
0.0
0
VERTEX
8
cut
10
581.8236
20
22.8485
30
0.0
0
VERTEX
8
cut
10
578.9289
20
22.3947
30
0.0
0
VERTEX
8
cut
10
576.4471
20
21.6410
30
0.0
0
VERTEX
8
cut
10
574.2654
20
20.5909
30
0.0
0
VERTEX
8
cut
10
572.3473
20
19.2484
30
0.0
0
VERTEX
8
cut
10
570.6803
20
17.6176
30
0.0
0
VERTEX
8
cut
10
569.2623
20
15.7007
30
0.0
0
VERTEX
8
cut
10
568.0949
20
13.4948
30
0.0
0
VERTEX
8
cut
10
567.1817
20
10.9859
30
0.0
0
VERTEX
8
cut
10
566.5263
20
8.1318
30
0.0
0
VERTEX
8
cut
10
566.1317
20
4.8028
30
0.0
0
VERTEX
8
cut
10
566.0000
20
0.0000
30
0.0
0
VERTEX
8
cut
10
566.1317
20
-4.8028
30
0.0
0
VERTEX
8
cut
10
566.5263
20
-8.1318
30
0.0
0
VERTEX
8
cut
10
567.1817
20
-10.9859
30
0.0
0
VERTEX
8
cut
10
568.0949
20
-13.4948
30
0.0
0
VERTEX
8
cut
10
569.2623
20
-15.7007
30
0.0
0
VERTEX
8
cut
10
570.6803
20
-17.6176
30
0.0
0
VERTEX
8
cut
10
572.3473
20
-19.2484
30
0.0
0
VERTEX
8
cut
10
574.2654
20
-20.5909
30
0.0
0
VERTEX
8
cut
10
576.4471
20
-21.6410
30
0.0
0
VERTEX
8
cut
10
578.9289
20
-22.3947
30
0.0
0
VERTEX
8
cut
10
581.8236
20
-22.8485
30
0.0
0
VERTEX
8
cut
10
586.0000
20
-23.0000
30
0.0
0
VERTEX
8
cut
10
590.1764
20
-22.8485
30
0.0
0
VERTEX
8
cut
10
593.0711
20
-22.3947
30
0.0
0
VERTEX
8
cut
10
595.5529
20
-21.6410
30
0.0
0
VERTEX
8
cut
10
597.7346
20
-20.5909
30
0.0
0
VERTEX
8
cut
10
599.6527
20
-19.2484
30
0.0
0
VERTEX
8
cut
10
601.3197
20
-17.6176
30
0.0
0
VERTEX
8
cut
10
602.7377
20
-15.7007
30
0.0
0
VERTEX
8
cut
10
603.9051
20
-13.4948
30
0.0
0
VERTEX
8
cut
10
604.8183
20
-10.9859
30
0.0
0
VERTEX
8
cut
10
605.4737
20
-8.1318
30
0.0
0
VERTEX
8
cut
10
605.8683
20
-4.8028
30
0.0
0
SEQEND
0
ENDSEC
0
EOF
