0
SECTION
2
ENTITIES
0
POLYLINE
8
cut
66
1
70
1
0
VERTEX
8
cut
10
0.0000
20
74.0000
30
0.0
0
VERTEX
8
cut
10
120.0000
20
74.0000
30
0.0
0
VERTEX
8
cut
10
120.0000
20
126.0000
30
0.0
0
VERTEX
8
cut
10
0.0000
20
126.0000
30
0.0
0
SEQEND
0
POLYLINE
8
cut
66
1
70
1
0
VERTEX
8
cut
10
81.9000
20
46.1638
30
0.0
0
VERTEX
8
cut
10
81.8753
20
46.1691
30
0.0
0
VERTEX
8
cut
10
81.8014
20
46.1851
30
0.0
0
VERTEX
8
cut
10
81.6783
20
46.2117
30
0.0
0
VERTEX
8
cut
10
81.5061
20
46.2488
30
0.0
0
VERTEX
8
cut
10
81.2851
20
46.2963
30
0.0
0
VERTEX
8
cut
10
81.0154
20
46.3539
30
0.0
0
VERTEX
8
cut
10
80.6975
20
46.4214
30
0.0
0
VERTEX
8
cut
10
80.3316
20
46.4987
30
0.0
0
VERTEX
8
cut
10
79.9181
20
46.5853
30
0.0
0
VERTEX
8
cut
10
79.4575
20
46.6810
30
0.0
0
VERTEX
8
cut
10
78.9504
20
46.7853
30
0.0
0
VERTEX
8
cut
10
78.3974
20
46.8980
30
0.0
0
VERTEX
8
cut
10
77.7989
20
47.0185
30
0.0
0
VERTEX
8
cut
10
77.1558
20
47.1465
30
0.0
0
VERTEX
8
cut
10
76.4687
20
47.2815
30
0.0
0
VERTEX
8
cut
10
75.7385
20
47.4229
30
0.0
0
VERTEX
8
cut
10
74.9660
20
47.5703
30
0.0
0
VERTEX
8
cut
10
74.1520
20
47.7232
30
0.0
0
VERTEX
8
cut
10
73.2976
20
47.8650
30
0.0
0
VERTEX
8
cut
10
72.4036
20
48.0130
30
0.0
0
VERTEX
8
cut
10
71.4712
20
48.1665
30
0.0
0
VERTEX
8
cut
10
70.5015
20
48.3247
30
0.0
0
VERTEX
8
cut
10
69.4955
20
48.4868
30
0.0
0
VERTEX
8
cut
10
68.4544
20
48.6522
30
0.0
0
VERTEX
8
cut
10
67.3796
20
48.8201
30
0.0
0
VERTEX
8
cut
10
66.2721
20
48.9897
30
0.0
0
VERTEX
8
cut
10
65.1334
20
49.1603
30
0.0
0
VERTEX
8
cut
10
63.9648
20
49.3313
30
0.0
0
VERTEX
8
cut
10
62.7677
20
49.5020
30
0.0
0
VERTEX
8
cut
10
61.5436
20
49.6716
30
0.0
0
VERTEX
8
cut
10
60.2938
20
49.8397
30
0.0
0
VERTEX
8
cut
10
59.0199
20
50.0056
30
0.0
0
VERTEX
8
cut
10
57.7234
20
50.1687
30
0.0
0
VERTEX
8
cut
10
56.4059
20
50.3284
30
0.0
0
VERTEX
8
cut
10
55.0689
20
50.4842
30
0.0
0
VERTEX
8
cut
10
53.7142
20
50.6356
30
0.0
0
VERTEX
8
cut
10
52.3433
20
50.7820
30
0.0
0
VERTEX
8
cut
10
50.9579
20
50.9229
30
0.0
0
VERTEX
8
cut
10
49.5597
20
51.0578
30
0.0
0
VERTEX
8
cut
10
48.1504
20
51.1861
30
0.0
0
VERTEX
8
cut
10
46.7318
20
51.3074
30
0.0
0
VERTEX
8
cut
10
45.3055
20
51.4212
30
0.0
0
VERTEX
8
cut
10
43.8734
20
51.5269
30
0.0
0
VERTEX
8
cut
10
42.4372
20
51.6240
30
0.0
0
VERTEX
8
cut
10
40.9988
20
51.7121
30
0.0
0
VERTEX
8
cut
10
39.5598
20
51.7907
30
0.0
0
VERTEX
8
cut
10
38.1221
20
51.8592
30
0.0
0
VERTEX
8
cut
10
36.6874
20
51.9173
30
0.0
0
VERTEX
8
cut
10
35.2577
20
51.9645
30
0.0
0
VERTEX
8
cut
10
33.8305
20
52.0008
30
0.0
0
VERTEX
8
cut
10
32.4054
20
52.0257
30
0.0
0
VERTEX
8
cut
10
30.9904
20
52.0392
30
0.0
0
VERTEX
8
cut
10
29.5874
20
52.0410
30
0.0
0
VERTEX
8
cut
10
28.1982
20
52.0315
30
0.0
0
VERTEX
8
cut
10
26.8246
20
52.0109
30
0.0
0
VERTEX
8
cut
10
25.4684
20
51.9797
30
0.0
0
VERTEX
8
cut
10
24.1315
20
51.9387
30
0.0
0
VERTEX
8
cut
10
22.8155
20
51.8887
30
0.0
0
VERTEX
8
cut
10
21.5222
20
51.8309
30
0.0
0
VERTEX
8
cut
10
20.2532
20
51.7666
30
0.0
0
VERTEX
8
cut
10
19.0104
20
51.6974
30
0.0
0
VERTEX
8
cut
10
17.7953
20
51.6249
30
0.0
0
VERTEX
8
cut
10
16.6094
20
51.5509
30
0.0
0
VERTEX
8
cut
10
15.4544
20
51.4771
30
0.0
0
VERTEX
8
cut
10
14.3317
20
51.3268
30
0.0
0
VERTEX
8
cut
10
13.2428
20
51.1661
30
0.0
0
VERTEX
8
cut
10
12.1891
20
50.9957
30
0.0
0
VERTEX
8
cut
10
11.1720
20
50.8162
30
0.0
0
VERTEX
8
cut
10
10.1927
20
50.6282
30
0.0
0
VERTEX
8
cut
10
9.2525
20
50.4326
30
0.0
0
VERTEX
8
cut
10
8.3526
20
50.2300
30
0.0
0
VERTEX
8
cut
10
7.4940
20
50.0212
30
0.0
0
VERTEX
8
cut
10
6.6778
20
49.8069
30
0.0
0
VERTEX
8
cut
10
5.9051
20
49.5880
30
0.0
0
VERTEX
8
cut
10
5.1767
20
49.3651
30
0.0
0
VERTEX
8
cut
10
4.4935
20
49.1390
30
0.0
0
VERTEX
8
cut
10
3.8563
20
48.9105
30
0.0
0
VERTEX
8
cut
10
3.2658
20
48.6803
30
0.0
0
VERTEX
8
cut
10
2.7226
20
48.4490
30
0.0
0
VERTEX
8
cut
10
2.2275
20
48.2175
30
0.0
0
VERTEX
8
cut
10
1.7809
20
47.9862
30
0.0
0
VERTEX
8
cut
10
1.3832
20
47.7558
30
0.0
0
VERTEX
8
cut
10
1.0350
20
47.5269
30
0.0
0
VERTEX
8
cut
10
0.7364
20
47.2999
30
0.0
0
VERTEX
8
cut
10
0.4879
20
47.0753
30
0.0
0
VERTEX
8
cut
10
0.2895
20
46.8535
30
0.0
0
VERTEX
8
cut
10
0.1415
20
46.6348
30
0.0
0
VERTEX
8
cut
10
0.0439
20
46.4196
30
0.0
0
VERTEX
8
cut
10
-0.0033
20
46.2079
30
0.0
0
VERTEX
8
cut
10
0.0000
20
46.0000
30
0.0
0
VERTEX
8
cut
10
0.0532
20
45.7990
30
0.0
0
VERTEX
8
cut
10
0.1556
20
45.6079
30
0.0
0
VERTEX
8
cut
10
0.3072
20
45.4269
30
0.0
0
VERTEX
8
cut
10
0.5076
20
45.2559
30
0.0
0
VERTEX
8
cut
10
0.7564
20
45.0950
30
0.0
0
VERTEX
8
cut
10
1.0533
20
44.9440
30
0.0
0
VERTEX
8
cut
10
1.3978
20
44.8031
30
0.0
0
VERTEX
8
cut
10
1.7894
20
44.6722
30
0.0
0
VERTEX
8
cut
10
2.2276
20
44.5512
30
0.0
0
VERTEX
8
cut
10
2.7117
20
44.4401
30
0.0
0
VERTEX
8
cut
10
3.2410
20
44.3387
30
0.0
0
VERTEX
8
cut
10
3.8149
20
44.2471
30
0.0
0
VERTEX
8
cut
10
4.4325
20
44.1651
30
0.0
0
VERTEX
8
cut
10
5.0931
20
44.0925
30
0.0
0
VERTEX
8
cut
10
5.7958
20
44.0292
30
0.0
0
VERTEX
8
cut
10
6.5398
20
43.9750
30
0.0
0
VERTEX
8
cut
10
7.3240
20
43.9297
30
0.0
0
VERTEX
8
cut
10
8.1475
20
43.8930
30
0.0
0
VERTEX
8
cut
10
9.0094
20
43.8648
30
0.0
0
VERTEX
8
cut
10
9.9084
20
43.8446
30
0.0
0
VERTEX
8
cut
10
10.8437
20
43.8323
30
0.0
0
VERTEX
8
cut
10
11.8141
20
43.8274
30
0.0
0
VERTEX
8
cut
10
12.8183
20
43.8297
30
0.0
0
VERTEX
8
cut
10
13.8554
20
43.8386
30
0.0
0
VERTEX
8
cut
10
14.9240
20
43.8538
30
0.0
0
VERTEX
8
cut
10
16.0229
20
43.8749
30
0.0
0
VERTEX
8
cut
10
17.1510
20
43.9014
30
0.0
0
VERTEX
8
cut
10
18.3068
20
43.9328
30
0.0
0
VERTEX
8
cut
10
19.4892
20
43.9686
30
0.0
0
VERTEX
8
cut
10
20.6968
20
44.0082
30
0.0
0
VERTEX
8
cut
10
21.9281
20
44.0513
30
0.0
0
VERTEX
8
cut
10
23.1819
20
44.0972
30
0.0
0
VERTEX
8
cut
10
24.4568
20
44.1454
30
0.0
0
VERTEX
8
cut
10
25.7513
20
44.1954
30
0.0
0
VERTEX
8
cut
10
27.0639
20
44.2466
30
0.0
0
VERTEX
8
cut
10
28.3933
20
44.2984
30
0.0
0
VERTEX
8
cut
10
29.7379
20
44.3504
30
0.0
0
VERTEX
8
cut
10
31.0962
20
44.4020
30
0.0
0
VERTEX
8
cut
10
32.4666
20
44.4528
30
0.0
0
VERTEX
8
cut
10
33.8477
20
44.5022
30
0.0
0
VERTEX
8
cut
10
35.2441
20
44.5504
30
0.0
0
VERTEX
8
cut
10
36.6517
20
44.5999
30
0.0
0
VERTEX
8
cut
10
38.0649
20
44.6505
30
0.0
0
VERTEX
8
cut
10
39.4820
20
44.7019
30
0.0
0
VERTEX
8
cut
10
40.9012
20
44.7538
30
0.0
0
VERTEX
8
cut
10
42.3210
20
44.8058
30
0.0
0
VERTEX
8
cut
10
43.7396
20
44.8577
30
0.0
0
VERTEX
8
cut
10
45.1554
20
44.9092
30
0.0
0
VERTEX
8
cut
10
46.5665
20
44.9601
30
0.0
0
VERTEX
8
cut
10
47.9714
20
45.0101
30
0.0
0
VERTEX
8
cut
10
49.3683
20
45.0590
30
0.0
0
VERTEX
8
cut
10
50.7555
20
45.1067
30
0.0
0
VERTEX
8
cut
10
52.1314
20
45.1530
30
0.0
0
VERTEX
8
cut
10
53.4943
20
45.1979
30
0.0
0
VERTEX
8
cut
10
54.8425
20
45.2411
30
0.0
0
VERTEX
8
cut
10
56.1744
20
45.2826
30
0.0
0
VERTEX
8
cut
10
57.4884
20
45.3223
30
0.0
0
VERTEX
8
cut
10
58.7827
20
45.3603
30
0.0
0
VERTEX
8
cut
10
60.0560
20
45.3964
30
0.0
0
VERTEX
8
cut
10
61.3064
20
45.4307
30
0.0
0
VERTEX
8
cut
10
62.5327
20
45.4632
30
0.0
0
VERTEX
8
cut
10
63.7331
20
45.4939
30
0.0
0
VERTEX
8
cut
10
64.9062
20
45.5228
30
0.0
0
VERTEX
8
cut
10
66.0506
20
45.5500
30
0.0
0
VERTEX
8
cut
10
67.1648
20
45.5755
30
0.0
0
VERTEX
8
cut
10
68.2474
20
45.5995
30
0.0
0
VERTEX
8
cut
10
69.2970
20
45.6218
30
0.0
0
VERTEX
8
cut
10
70.3124
20
45.6427
30
0.0
0
VERTEX
8
cut
10
71.2923
20
45.6622
30
0.0
0
VERTEX
8
cut
10
72.2354
20
45.6803
30
0.0
0
VERTEX
8
cut
10
73.1405
20
45.6971
30
0.0
0
VERTEX
8
cut
10
74.0065
20
45.7127
30
0.0
0
VERTEX
8
cut
10
74.8322
20
45.7272
30
0.0
0
VERTEX
8
cut
10
75.6166
20
45.7405
30
0.0
0
VERTEX
8
cut
10
76.3587
20
45.7528
30
0.0
0
VERTEX
8
cut
10
77.0576
20
45.7642
30
0.0
0
VERTEX
8
cut
10
77.7123
20
45.7745
30
0.0
0
VERTEX
8
cut
10
78.3220
20
45.7840
30
0.0
0
VERTEX
8
cut
10
78.8859
20
45.7926
30
0.0
0
VERTEX
8
cut
10
79.4033
20
45.8003
30
0.0
0
VERTEX
8
cut
10
79.8734
20
45.8073
30
0.0
0
VERTEX
8
cut
10
80.2958
20
45.8134
30
0.0
0
VERTEX
8
cut
10
80.6697
20
45.8188
30
0.0
0
VERTEX
8
cut
10
80.9948
20
45.8235
30
0.0
0
VERTEX
8
cut
10
81.2707
20
45.8274
30
0.0
0
VERTEX
8
cut
10
81.4968
20
45.8306
30
0.0
0
VERTEX
8
cut
10
81.6730
20
45.8330
30
0.0
0
VERTEX
8
cut
10
81.7991
20
45.8348
30
0.0
0
VERTEX
8
cut
10
81.8748
20
45.8358
30
0.0
0
VERTEX
8
cut
10
81.9000
20
45.8362
30
0.0
0
SEQEND
0
POLYLINE
8
cut
66
1
70
1
0
VERTEX
8
cut
10
133.2000
20
46.1344
30
0.0
0
VERTEX
8
cut
10
133.1798
20
46.1388
30
0.0
0
VERTEX
8
cut
10
133.1191
20
46.1519
30
0.0
0
VERTEX
8
cut
10
133.0181
20
46.1737
30
0.0
0
VERTEX
8
cut
10
132.8768
20
46.2042
30
0.0
0
VERTEX
8
cut
10
132.6955
20
46.2431
30
0.0
0
VERTEX
8
cut
10
132.4742
20
46.2904
30
0.0
0
VERTEX
8
cut
10
132.2133
20
46.3458
30
0.0
0
VERTEX
8
cut
10
131.9131
20
46.4092
30
0.0
0
VERTEX
8
cut
10
131.5738
20
46.4802
30
0.0
0
VERTEX
8
cut
10
131.1959
20
46.5587
30
0.0
0
VERTEX
8
cut
10
130.7799
20
46.6444
30
0.0
0
VERTEX
8
cut
10
130.3260
20
46.7368
30
0.0
0
VERTEX
8
cut
10
129.8350
20
46.8357
30
0.0
0
VERTEX
8
cut
10
129.3073
20
46.9407
30
0.0
0
VERTEX
8
cut
10
128.7436
20
47.0514
30
0.0
0
VERTEX
8
cut
10
128.1444
20
47.1675
30
0.0
0
VERTEX
8
cut
10
127.5105
20
47.2885
30
0.0
0
VERTEX
8
cut
10
126.8427
20
47.4139
30
0.0
0
VERTEX
8
cut
10
126.1416
20
47.5303
30
0.0
0
VERTEX
8
cut
10
125.4081
20
47.6517
30
0.0
0
VERTEX
8
cut
10
124.6431
20
47.7776
30
0.0
0
VERTEX
8
cut
10
123.8474
20
47.9074
30
0.0
0
VERTEX
8
cut
10
123.0219
20
48.0405
30
0.0
0
VERTEX
8
cut
10
122.1677
20
48.1762
30
0.0
0
VERTEX
8
cut
10
121.2858
20
48.3139
30
0.0
0
VERTEX
8
cut
10
120.3771
20
48.4531
30
0.0
0
VERTEX
8
cut
10
119.4428
20
48.5931
30
0.0
0
VERTEX
8
cut
10
118.4840
20
48.7334
30
0.0
0
VERTEX
8
cut
10
117.5017
20
48.8734
30
0.0
0
VERTEX
8
cut
10
116.4973
20
49.0126
30
0.0
0
VERTEX
8
cut
10
115.4718
20
49.1505
30
0.0
0
VERTEX
8
cut
10
114.4266
20
49.2866
30
0.0
0
VERTEX
8
cut
10
113.3628
20
49.4204
30
0.0
0
VERTEX
8
cut
10
112.2817
20
49.5515
30
0.0
0
VERTEX
8
cut
10
111.1848
20
49.6793
30
0.0
0
VERTEX
8
cut
10
110.0732
20
49.8035
30
0.0
0
VERTEX
8
cut
10
108.9483
20
49.9237
30
0.0
0
VERTEX
8
cut
10
107.8116
20
50.0393
30
0.0
0
VERTEX
8
cut
10
106.6644
20
50.1500
30
0.0
0
VERTEX
8
cut
10
105.5080
20
50.2553
30
0.0
0
VERTEX
8
cut
10
104.3440
20
50.3548
30
0.0
0
VERTEX
8
cut
10
103.1738
20
50.4482
30
0.0
0
VERTEX
8
cut
10
101.9987
20
50.5349
30
0.0
0
VERTEX
8
cut
10
100.8203
20
50.6146
30
0.0
0
VERTEX
8
cut
10
99.6400
20
50.6869
30
0.0
0
VERTEX
8
cut
10
98.4593
20
50.7513
30
0.0
0
VERTEX
8
cut
10
97.2796
20
50.8075
30
0.0
0
VERTEX
8
cut
10
96.1025
20
50.8552
30
0.0
0
VERTEX
8
cut
10
94.9294
20
50.8940
30
0.0
0
VERTEX
8
cut
10
93.7583
20
50.9237
30
0.0
0
VERTEX
8
cut
10
92.5890
20
50.9442
30
0.0
0
VERTEX
8
cut
10
91.4280
20
50.9552
30
0.0
0
VERTEX
8
cut
10
90.2768
20
50.9568
30
0.0
0
VERTEX
8
cut
10
89.1370
20
50.9489
30
0.0
0
VERTEX
8
cut
10
88.0099
20
50.9320
30
0.0
0
VERTEX
8
cut
10
86.8972
20
50.9064
30
0.0
0
VERTEX
8
cut
10
85.8002
20
50.8728
30
0.0
0
VERTEX
8
cut
10
84.7204
20
50.8317
30
0.0
0
VERTEX
8
cut
10
83.6592
20
50.7843
30
0.0
0
VERTEX
8
cut
10
82.6180
20
50.7316
30
0.0
0
VERTEX
8
cut
10
81.5983
20
50.6748
30
0.0
0
VERTEX
8
cut
10
80.6012
20
50.6153
30
0.0
0
VERTEX
8
cut
10
79.6282
20
50.5546
30
0.0
0
VERTEX
8
cut
10
78.6805
20
50.4940
30
0.0
0
VERTEX
8
cut
10
77.7593
20
50.3707
30
0.0
0
VERTEX
8
cut
10
76.8659
20
50.2389
30
0.0
0
VERTEX
8
cut
10
76.0013
20
50.0990
30
0.0
0
VERTEX
8
cut
10
75.1668
20
49.9517
30
0.0
0
VERTEX
8
cut
10
74.3633
20
49.7975
30
0.0
0
VERTEX
8
cut
10
73.5918
20
49.6370
30
0.0
0
VERTEX
8
cut
10
72.8534
20
49.4708
30
0.0
0
VERTEX
8
cut
10
72.1489
20
49.2994
30
0.0
0
VERTEX
8
cut
10
71.4792
20
49.1236
30
0.0
0
VERTEX
8
cut
10
70.8452
20
48.9440
30
0.0
0
VERTEX
8
cut
10
70.2475
20
48.7611
30
0.0
0
VERTEX
8
cut
10
69.6869
20
48.5756
30
0.0
0
VERTEX
8
cut
10
69.1641
20
48.3881
30
0.0
0
VERTEX
8
cut
10
68.6796
20
48.1992
30
0.0
0
VERTEX
8
cut
10
68.2340
20
48.0095
30
0.0
0
VERTEX
8
cut
10
67.8277
20
47.8195
30
0.0
0
VERTEX
8
cut
10
67.4612
20
47.6297
30
0.0
0
VERTEX
8
cut
10
67.1350
20
47.4407
30
0.0
0
VERTEX
8
cut
10
66.8492
20
47.2528
30
0.0
0
VERTEX
8
cut
10
66.6042
20
47.0666
30
0.0
0
VERTEX
8
cut
10
66.4003
20
46.8823
30
0.0
0
VERTEX
8
cut
10
66.2375
20
46.7003
30
0.0
0
VERTEX
8
cut
10
66.1161
20
46.5209
30
0.0
0
VERTEX
8
cut
10
66.0360
20
46.3443
30
0.0
0
VERTEX
8
cut
10
65.9973
20
46.1706
30
0.0
0
VERTEX
8
cut
10
66.0000
20
46.0000
30
0.0
0
VERTEX
8
cut
10
66.0436
20
45.8351
30
0.0
0
VERTEX
8
cut
10
66.1277
20
45.6783
30
0.0
0
VERTEX
8
cut
10
66.2521
20
45.5298
30
0.0
0
VERTEX
8
cut
10
66.4165
20
45.3895
30
0.0
0
VERTEX
8
cut
10
66.6206
20
45.2574
30
0.0
0
VERTEX
8
cut
10
66.8642
20
45.1336
30
0.0
0
VERTEX
8
cut
10
67.1469
20
45.0179
30
0.0
0
VERTEX
8
cut
10
67.4682
20
44.9105
30
0.0
0
VERTEX
8
cut
10
67.8278
20
44.8112
30
0.0
0
VERTEX
8
cut
10
68.2250
20
44.7200
30
0.0
0
VERTEX
8
cut
10
68.6593
20
44.6369
30
0.0
0
VERTEX
8
cut
10
69.1301
20
44.5617
30
0.0
0
VERTEX
8
cut
10
69.6369
20
44.4944
30
0.0
0
VERTEX
8
cut
10
70.1790
20
44.4349
30
0.0
0
VERTEX
8
cut
10
70.7556
20
44.3829
30
0.0
0
VERTEX
8
cut
10
71.3660
20
44.3384
30
0.0
0
VERTEX
8
cut
10
72.0094
20
44.3013
30
0.0
0
VERTEX
8
cut
10
72.6851
20
44.2712
30
0.0
0
VERTEX
8
cut
10
73.3923
20
44.2480
30
0.0
0
VERTEX
8
cut
10
74.1300
20
44.2315
30
0.0
0
VERTEX
8
cut
10
74.8974
20
44.2214
30
0.0
0
VERTEX
8
cut
10
75.6936
20
44.2174
30
0.0
0
VERTEX
8
cut
10
76.5176
20
44.2192
30
0.0
0
VERTEX
8
cut
10
77.3685
20
44.2265
30
0.0
0
VERTEX
8
cut
10
78.2453
20
44.2390
30
0.0
0
VERTEX
8
cut
10
79.1470
20
44.2563
30
0.0
0
VERTEX
8
cut
10
80.0726
20
44.2781
30
0.0
0
VERTEX
8
cut
10
81.0210
20
44.3038
30
0.0
0
VERTEX
8
cut
10
81.9911
20
44.3332
30
0.0
0
VERTEX
8
cut
10
82.9820
20
44.3657
30
0.0
0
VERTEX
8
cut
10
83.9923
20
44.4011
30
0.0
0
VERTEX
8
cut
10
85.0211
20
44.4387
30
0.0
0
VERTEX
8
cut
10
86.0671
20
44.4783
30
0.0
0
VERTEX
8
cut
10
87.1293
20
44.5193
30
0.0
0
VERTEX
8
cut
10
88.2063
20
44.5613
30
0.0
0
VERTEX
8
cut
10
89.2971
20
44.6038
30
0.0
0
VERTEX
8
cut
10
90.4003
20
44.6465
30
0.0
0
VERTEX
8
cut
10
91.5148
20
44.6888
30
0.0
0
VERTEX
8
cut
10
92.6393
20
44.7305
30
0.0
0
VERTEX
8
cut
10
93.7725
20
44.7710
30
0.0
0
VERTEX
8
cut
10
94.9182
20
44.8106
30
0.0
0
VERTEX
8
cut
10
96.0732
20
44.8512
30
0.0
0
VERTEX
8
cut
10
97.2327
20
44.8927
30
0.0
0
VERTEX
8
cut
10
98.3955
20
44.9349
30
0.0
0
VERTEX
8
cut
10
99.5600
20
44.9774
30
0.0
0
VERTEX
8
cut
10
100.7249
20
45.0201
30
0.0
0
VERTEX
8
cut
10
101.8889
20
45.0627
30
0.0
0
VERTEX
8
cut
10
103.0505
20
45.1050
30
0.0
0
VERTEX
8
cut
10
104.2084
20
45.1467
30
0.0
0
VERTEX
8
cut
10
105.3611
20
45.1877
30
0.0
0
VERTEX
8
cut
10
106.5073
20
45.2279
30
0.0
0
VERTEX
8
cut
10
107.6456
20
45.2671
30
0.0
0
VERTEX
8
cut
10
108.7745
20
45.3051
30
0.0
0
VERTEX
8
cut
10
109.8928
20
45.3418
30
0.0
0
VERTEX
8
cut
10
110.9990
20
45.3773
30
0.0
0
VERTEX
8
cut
10
112.0918
20
45.4113
30
0.0
0
VERTEX
8
cut
10
113.1699
20
45.4440
30
0.0
0
VERTEX
8
cut
10
114.2320
20
45.4751
30
0.0
0
VERTEX
8
cut
10
115.2767
20
45.5047
30
0.0
0
VERTEX
8
cut
10
116.3027
20
45.5329
30
0.0
0
VERTEX
8
cut
10
117.3088
20
45.5595
30
0.0
0
VERTEX
8
cut
10
118.2938
20
45.5847
30
0.0
0
VERTEX
8
cut
10
119.2564
20
45.6085
30
0.0
0
VERTEX
8
cut
10
120.1953
20
45.6308
30
0.0
0
VERTEX
8
cut
10
121.1095
20
45.6517
30
0.0
0
VERTEX
8
cut
10
121.9978
20
45.6713
30
0.0
0
VERTEX
8
cut
10
122.8591
20
45.6897
30
0.0
0
VERTEX
8
cut
10
123.6923
20
45.7068
30
0.0
0
VERTEX
8
cut
10
124.4963
20
45.7228
30
0.0
0
VERTEX
8
cut
10
125.2701
20
45.7377
30
0.0
0
VERTEX
8
cut
10
126.0127
20
45.7515
30
0.0
0
VERTEX
8
cut
10
126.7233
20
45.7643
30
0.0
0
VERTEX
8
cut
10
127.4008
20
45.7762
30
0.0
0
VERTEX
8
cut
10
128.0444
20
45.7871
30
0.0
0
VERTEX
8
cut
10
128.6533
20
45.7972
30
0.0
0
VERTEX
8
cut
10
129.2268
20
45.8065
30
0.0
0
VERTEX
8
cut
10
129.7640
20
45.8150
30
0.0
0
VERTEX
8
cut
10
130.2642
20
45.8228
30
0.0
0
VERTEX
8
cut
10
130.7269
20
45.8298
30
0.0
0
VERTEX
8
cut
10
131.1514
20
45.8362
30
0.0
0
VERTEX
8
cut
10
131.5372
20
45.8419
30
0.0
0
VERTEX
8
cut
10
131.8837
20
45.8469
30
0.0
0
VERTEX
8
cut
10
132.1906
20
45.8513
30
0.0
0
VERTEX
8
cut
10
132.4573
20
45.8552
30
0.0
0
VERTEX
8
cut
10
132.6836
20
45.8584
30
0.0
0
VERTEX
8
cut
10
132.8692
20
45.8610
30
0.0
0
VERTEX
8
cut
10
133.0138
20
45.8630
30
0.0
0
VERTEX
8
cut
10
133.1172
20
45.8644
30
0.0
0
VERTEX
8
cut
10
133.1793
20
45.8653
30
0.0
0
VERTEX
8
cut
10
133.2000
20
45.8656
30
0.0
0
SEQEND
0
POLYLINE
8
cut
66
1
70
0
0
VERTEX
8
cut
10
140.0000
20
69.6000
30
0.0
0
VERTEX
8
cut
10
237.5000
20
69.6000
30
0.0
0
SEQEND
0
POLYLINE
8
cut
66
1
70
0
0
VERTEX
8
cut
10
140.0000
20
67.6000
30
0.0
0
VERTEX
8
cut
10
237.5000
20
67.6000
30
0.0
0
SEQEND
0
POLYLINE
8
cut
66
1
70
0
0
VERTEX
8
cut
10
140.0000
20
49.6000
30
0.0
0
VERTEX
8
cut
10
145.8500
20
52.5250
30
0.0
0
VERTEX
8
cut
10
154.6250
20
53.9875
30
0.0
0
VERTEX
8
cut
10
169.2500
20
54.4750
30
0.0
0
VERTEX
8
cut
10
188.7500
20
53.8900
30
0.0
0
VERTEX
8
cut
10
213.1250
20
52.1350
30
0.0
0
VERTEX
8
cut
10
237.5000
20
49.9900
30
0.0
0
SEQEND
0
POLYLINE
8
cut
66
1
70
0
0
VERTEX
8
cut
10
140.0000
20
49.6000
30
0.0
0
VERTEX
8
cut
10
237.5000
20
49.9900
30
0.0
0
SEQEND
0
ENDSEC
0
EOF
