0
SECTION
2
ENTITIES
0
POLYLINE
8
cut
66
1
70
1
0
VERTEX
8
cut
10
0.0000
20
15.0000
30
0.0
0
VERTEX
8
cut
10
30.0000
20
28.0000
30
0.0
0
VERTEX
8
cut
10
65.0000
20
37.0000
30
0.0
0
VERTEX
8
cut
10
120.0000
20
44.0000
30
0.0
0
VERTEX
8
cut
10
200.0000
20
46.0000
30
0.0
0
VERTEX
8
cut
10
300.0000
20
44.0000
30
0.0
0
VERTEX
8
cut
10
380.0000
20
41.0000
30
0.0
0
VERTEX
8
cut
10
470.0000
20
36.0000
30
0.0
0
VERTEX
8
cut
10
560.0000
20
28.0000
30
0.0
0
VERTEX
8
cut
10
560.0000
20
-18.0000
30
0.0
0
VERTEX
8
cut
10
470.0000
20
-30.0000
30
0.0
0
VERTEX
8
cut
10
380.0000
20
-39.0000
30
0.0
0
VERTEX
8
cut
10
300.0000
20
-46.0000
30
0.0
0
VERTEX
8
cut
10
200.0000
20
-50.0000
30
0.0
0
VERTEX
8
cut
10
120.0000
20
-48.0000
30
0.0
0
VERTEX
8
cut
10
65.0000
20
-39.0000
30
0.0
0
VERTEX
8
cut
10
30.0000
20
-28.0000
30
0.0
0
VERTEX
8
cut
10
0.0000
20
-3.0000
30
0.0
0
SEQEND
0
POLYLINE
8
cut
66
1
70
1
0
VERTEX
8
cut
10
0.0000
20
-103.0000
30
0.0
0
VERTEX
8
cut
10
30.0000
20
-86.0000
30
0.0
0
VERTEX
8
cut
10
65.0000
20
-78.0000
30
0.0
0
VERTEX
8
cut
10
120.0000
20
-73.0000
30
0.0
0
VERTEX
8
cut
10
200.0000
20
-72.0000
30
0.0
0
VERTEX
8
cut
10
300.0000
20
-74.0000
30
0.0
0
VERTEX
8
cut
10
380.0000
20
-79.0000
30
0.0
0
VERTEX
8
cut
10
470.0000
20
-85.0000
30
0.0
0
VERTEX
8
cut
10
560.0000
20
-92.0000
30
0.0
0
VERTEX
8
cut
10
560.0000
20
-132.0000
30
0.0
0
VERTEX
8
cut
10
470.0000
20
-139.0000
30
0.0
0
VERTEX
8
cut
10
380.0000
20
-145.0000
30
0.0
0
VERTEX
8
cut
10
300.0000
20
-150.0000
30
0.0
0
VERTEX
8
cut
10
200.0000
20
-152.0000
30
0.0
0
VERTEX
8
cut
10
120.0000
20
-151.0000
30
0.0
0
VERTEX
8
cut
10
65.0000
20
-146.0000
30
0.0
0
VERTEX
8
cut
10
30.0000
20
-138.0000
30
0.0
0
VERTEX
8
cut
10
0.0000
20
-121.0000
30
0.0
0
SEQEND
0
ENDSEC
0
EOF
